<?xml version="1.0" encoding="utf-8"?>
<!-- Generator: Adobe Illustrator 16.0.4, SVG Export Plug-In . SVG Version: 6.00 Build 0)  -->
<!DOCTYPE svg PUBLIC "-//W3C//DTD SVG 1.1//EN" "http://www.w3.org/Graphics/SVG/1.1/DTD/svg11.dtd">
<svg version="1.1"
	 id="svg153" xmlns:dc="http://purl.org/dc/elements/1.1/" xmlns:cc="http://creativecommons.org/ns#" xmlns:rdf="http://www.w3.org/1999/02/22-rdf-syntax-ns#"
	 xmlns="http://www.w3.org/2000/svg" xmlns:xlink="http://www.w3.org/1999/xlink" x="0px" y="0px" width="1379.614px"
	 height="453.4px" viewBox="-478.5 -5.6 1379.614 453.4" enable-background="new -478.5 -5.6 1379.614 453.4" xml:space="preserve">
<desc  id="desc3066">The United States of America flag, produced by Daniel McRae</desc>
<g>
	<g>
		<g>
			<path fill="#AF194B" d="M137.499,280.266c0.125,9.237,0.292,16.654,0.485,22.253c0.2,5.598,0.294,9.369,0.294,11.32
				s-0.72,3.84-2.148,5.66c-1.433,1.823-3.252,2.733-5.467,2.733c-2.216,0-4.034-0.91-5.464-2.733
				c-1.431-1.82-2.147-3.709-2.147-5.66s0.066-5.723,0.194-11.32c0.522-13.016,0.786-29.935,0.786-50.755v-48.999l-9.375,11.715
				c-1.561,1.953-3.354,4.264-5.366,6.93c-2.022,2.671-3.548,4.657-4.589,5.956c-1.04,1.301-2.242,2.796-3.608,4.491
				c-1.367,1.688-2.408,2.927-3.125,3.709c-0.716,0.774-1.535,1.557-2.443,2.342c-1.688,1.297-3.384,1.948-5.07,1.948
				c-1.694,0-3.128-0.651-4.299-1.948c-1.169-1.305-1.756-2.636-1.756-4.007c0-1.362,0.165-2.47,0.488-3.313
				c0.323-0.853,1.072-2.021,2.245-3.516c1.173-1.496,2.34-2.894,3.514-4.198c1.171-1.301,3.093-3.415,5.761-6.34
				c2.664-2.933,5.331-5.954,8.002-9.081c2.664-3.124,5.591-6.736,8.785-10.833c3.186-4.104,5.496-6.996,6.93-8.688
				c3.247-4.162,6.339-6.249,9.272-6.249c2.927,0,5.136,0.914,6.636,2.733c1.497,1.824,2.246,3.709,2.246,5.664
				c0,1.947-0.07,5.793-0.193,11.514c-0.527,13.407-0.784,27.559-0.784,42.457C137.302,258.957,137.365,271.021,137.499,280.266z"/>
		</g>
		<g>
			<path fill="#AF194B" d="M259.299,201.789c9.633,14.058,14.448,30.78,14.448,50.168c0,19.396-4.815,36.113-14.448,50.166
				c-9.632,14.054-22.191,21.084-37.669,21.084c-15.488,0-28.047-7.03-37.675-21.084c-9.634-14.053-14.447-30.77-14.447-50.166
				c0-19.389,4.812-36.111,14.447-50.168c9.628-14.049,22.187-21.08,37.675-21.08C237.108,180.708,249.667,187.739,259.299,201.789z
				 M248.862,292.855c7.217-11.646,10.832-25.277,10.832-40.898c0-15.617-3.615-29.245-10.832-40.892
				c-7.224-11.644-16.299-17.476-27.231-17.476c-10.93,0-20.01,5.833-27.234,17.476c-7.222,11.647-10.834,25.275-10.834,40.892
				c0,15.621,3.612,29.253,10.834,40.898c7.225,11.646,16.305,17.468,27.234,17.468
				C232.563,310.323,241.638,304.501,248.862,292.855z"/>
		</g>
		<g>
			<path fill="#AF194B" d="M343.434,280.266c0.132,9.237,0.294,16.654,0.488,22.253c0.193,5.598,0.294,9.369,0.294,11.32
				s-0.72,3.84-2.152,5.66c-1.433,1.823-3.252,2.733-5.467,2.733c-2.211,0-4.026-0.91-5.467-2.733
				c-1.433-1.82-2.145-3.709-2.145-5.66s0.062-5.723,0.201-11.32c0.511-13.016,0.778-29.935,0.778-50.755v-48.999l-9.373,11.715
				c-1.561,1.953-3.353,4.264-5.365,6.93c-2.021,2.671-3.547,4.657-4.584,5.956c-1.054,1.301-2.246,2.796-3.616,4.491
				c-1.362,1.688-2.408,2.927-3.12,3.709c-0.721,0.774-1.533,1.557-2.439,2.342c-1.695,1.297-3.392,1.948-5.083,1.948
				c-1.685,0-3.12-0.651-4.294-1.948c-1.169-1.305-1.757-2.636-1.757-4.007c0-1.362,0.162-2.47,0.487-3.313
				c0.325-0.853,1.076-2.021,2.246-3.516c1.177-1.496,2.346-2.894,3.515-4.198c1.177-1.301,3.09-3.415,5.761-6.34
				c2.664-2.933,5.335-5.954,7.998-9.081c2.672-3.124,5.599-6.736,8.789-10.833c3.186-4.104,5.497-6.996,6.93-8.688
				c3.252-4.162,6.35-6.249,9.275-6.249c2.924,0,5.134,0.914,6.637,2.733c1.494,1.824,2.245,3.709,2.245,5.664
				c0,1.947-0.069,5.793-0.193,11.514c-0.526,13.407-0.782,27.559-0.782,42.457C343.24,258.957,343.302,271.021,343.434,280.266z"/>
		</g>
		<g>
			<path fill="#AF194B" d="M530.821,301.736c0,4.166-4.653,8.788-13.953,13.86c-9.307,5.071-20.209,7.61-32.698,7.61
				c-18.223,0-33.313-7.387-45.288-22.16c-11.971-14.758-17.956-32.791-17.956-54.061c0-21.283,6.047-39.271,18.149-53.982
				c12.11-14.704,27.263-22.052,45.482-22.052c10.805,0,20.503,2.017,29.09,6.047c8.591,4.034,12.884,8.591,12.884,13.668
				c0,2.081-0.619,3.707-1.858,4.878c-1.238,1.171-2.923,1.756-5.071,1.756c-2.145,0-4.685-1.038-7.611-3.124
				c-2.935-2.079-6.644-4.197-11.126-6.342c-4.491-2.148-9.927-3.221-16.307-3.221c-13.922,0-25.374,6.149-34.348,18.447
				c-8.982,12.296-13.473,26.812-13.473,43.529c0,16.725,4.49,31.397,13.473,44.018c8.974,12.621,20.363,18.932,34.153,18.932
				c6.381,0,12.134-0.678,17.278-2.052c5.142-1.358,9.01-2.826,11.619-4.39c2.594-1.557,5.002-3.028,7.216-4.391
				c2.215-1.37,3.902-2.052,5.079-2.052C529.071,296.657,530.821,298.353,530.821,301.736z"/>
		</g>
		<g>
			<path fill="#AF194B" d="M634.668,258.786l-0.975,30.654c0,3.64,0.03,6.411,0.1,8.293c0.062,1.89,0.457,3.841,1.17,5.861
				c0.712,2.013,1.591,3.252,2.633,3.709c1.037,0.449,2.113,0.743,3.221,0.875c1.104,0.132,1.889,0.325,2.346,0.585
				c0.457,0.259,0.682,0.777,0.682,1.56c0,3.384-1.068,6.218-3.221,8.494c-2.146,2.276-4.654,3.415-7.511,3.415
				c-4.956,0-8.366-1.951-10.252-5.854c-1.89-3.91-2.83-9.632-2.83-17.181l0.778-35.912c0-8.851-1.89-16.013-5.66-21.475
				c-3.778-5.471-9.013-8.2-15.714-8.2c-6.702,0-13.175,3.705-19.424,11.123c-6.248,7.417-10.607,15.818-13.077,25.188l0.588,42.354
				c0,6.636-2.478,9.958-7.418,9.958c-5.984,0-8.981-4.584-8.981-13.76s1.301-22.028,3.902-38.552c0-8.851-0.58-25.544-1.75-50.072
				c-1.177-24.53-1.761-37.772-1.761-39.725c0-1.951,0.681-3.806,2.048-5.563c1.362-1.757,3.221-2.634,5.563-2.634
				c2.342,0,4.2,0.877,5.562,2.634c1.367,1.758,2.057,4.131,2.057,7.124v63.831c9.488-16.523,21.203-24.789,35.129-24.789
				c10.41,0,18.479,3.707,24.205,11.13C631.804,239.267,634.668,248.248,634.668,258.786z"/>
		</g>
		<g>
			<path fill="#AF194B" d="M711.087,219.749c10.48,0,18.998,2.931,25.575,8.787c6.57,5.854,9.856,13.465,9.856,22.842
				c0,9.368-4.068,16.492-12.198,21.37c-8.135,4.878-18.127,7.324-29.966,7.324c-6.767,0-15.028-0.976-24.792-2.935
				c0.789,9.114,4.196,16.957,10.251,23.523c6.048,6.574,12.784,9.864,20.201,9.864c4.425,0,8.525-0.619,12.3-1.858
				c3.774-1.238,6.632-2.57,8.591-4.003c5.203-4.034,8.614-6.047,10.244-6.047c1.626,0,2.935,0.487,3.91,1.455
				c0.976,0.976,1.459,2.188,1.459,3.616c0,3.647-3.743,7.805-11.223,12.489c-7.479,4.692-15.587,7.03-24.306,7.03
				c-13.534,0-24.27-4.746-32.203-14.246c-7.943-9.501-12.241-20.953-12.888-34.355c-6.895-2.083-10.341-5.467-10.341-10.151
				c0-1.959,0.55-3.484,1.657-4.592c1.104-1.099,2.439-1.656,3.999-1.656c1.561,0,3.516,0.58,5.857,1.757
				c2.857-11.715,8.293-21.339,16.299-28.893C691.378,223.529,700.612,219.749,711.087,219.749z M703.674,267.769
				c8.788,0,15.811-1.495,21.084-4.483c5.265-2.996,7.897-7.03,7.897-12.11c0-5.071-1.727-9.462-5.169-13.171
				c-3.449-3.708-8.358-5.566-14.738-5.566c-8.587,0-15.814,3.221-21.665,9.663c-5.854,6.442-9.632,13.952-11.319,22.547
				C686.918,266.73,694.893,267.769,703.674,267.769z"/>
		</g>
		<g>
			<path fill="#AF194B" d="M790.24,222.679l18.932-0.391c2.083,0,3.849,0.521,5.28,1.561c1.425,1.045,2.146,2.604,2.146,4.687
				c0,3.902-2.479,5.854-7.426,5.854l-18.932-0.388v13.082c0,17.952,0.201,33.051,0.589,45.284
				c0.395,12.234,0.584,19.357,0.584,21.371c0,2.021-0.685,3.94-2.048,5.761c-1.37,1.823-3.221,2.733-5.567,2.733
				c-2.338,0-4.192-0.91-5.562-2.733c-1.359-1.82-2.049-3.74-2.049-5.761c0-2.014,0.062-6.078,0.202-12.195
				c0.643-18.351,0.976-36.508,0.976-54.46v-13.082l-9.958,0.388c-4.947,0-7.417-1.951-7.417-5.854c0-2.083,0.712-3.642,2.145-4.687
				c1.432-1.04,3.189-1.561,5.272-1.561l9.757,0.391v-16.593c0-12.102,2.373-20.817,7.123-26.157
				c4.754-5.333,10.252-8.002,16.5-8.002c6.241,0,11.421,1.202,15.513,3.61c4.101,2.41,6.152,4.981,6.152,7.708
				c0,4.298-1.819,6.446-5.467,6.446c-1.688,0-3.902-0.782-6.636-2.342c-2.733-1.564-5.404-2.342-7.998-2.342
				c-8.076,0-12.11,7.611-12.11,22.84V222.679z"/>
		</g>
		<g>
			<path fill="#AF194B" d="M901.115,292.174c0,8.851-3.608,16.074-10.828,21.665c-7.225,5.598-15.881,8.394-25.962,8.394
				c-10.09,0-18.839-2.308-26.257-6.931c-7.418-4.614-11.126-9.206-11.126-13.759c0-1.951,0.58-3.547,1.757-4.785
				c1.166-1.239,2.501-1.858,4.003-1.858c1.491,0,2.695,0.294,3.608,0.883c0.906,0.589,2.146,1.727,3.705,3.415
				c1.564,1.695,2.962,3.128,4.2,4.297c1.231,1.169,3.771,2.47,7.611,3.902c3.841,1.433,7.387,2.145,10.64,2.145
				c7.154,0,13.047-1.463,17.665-4.39c4.619-2.927,6.93-7.186,6.93-12.784c0-6.767-6.508-12.427-19.52-16.987
				c-5.339-1.82-10.705-3.802-16.102-5.947c-5.404-2.152-9.988-5.11-13.759-8.881c-3.782-3.778-5.668-8.27-5.668-13.469
				c0-7.03,3.19-13.183,9.566-18.447c6.376-5.273,14.181-7.91,23.426-7.91c9.241,0,16.562,1.597,21.959,4.785
				c5.397,3.187,8.1,6.539,8.1,10.055c0,4.29-2.276,6.435-6.829,6.435c-1.951,0-3.903-0.713-5.858-2.145
				c-6.12-4.29-11.974-6.442-17.564-6.442c-5.599,0-10.151,1.27-13.666,3.81c-3.516,2.531-5.273,5.466-5.273,8.784
				c0,3.317,1.89,6.144,5.66,8.49c3.778,2.346,8.358,4.49,13.764,6.442c5.4,1.951,10.836,4.134,16.303,6.538
				c5.462,2.412,10.081,5.727,13.859,9.954C899.229,281.667,901.115,286.576,901.115,292.174z"/>
		</g>
	</g>
	<path fill="#AF194B" d="M12.054,241.466c0,22.3-3.089,44.366-9.179,65.605c-0.831,2.888-3.508,4.909-6.508,4.909
		c-0.635,0-1.262-0.093-1.874-0.264c-1.738-0.503-3.18-1.648-4.057-3.229c-0.881-1.587-1.088-3.415-0.583-5.157
		c5.734-20.022,8.64-40.836,8.64-61.865c0-123.49-100.461-223.955-223.953-223.955c-123.488,0-223.952,100.465-223.952,223.955
		c0,21.896,3.151,43.53,9.365,64.297c1.072,3.585-0.972,7.363-4.549,8.439c-0.633,0.19-1.289,0.287-1.947,0.287
		c-2.972,0-5.641-1.99-6.497-4.84c-6.587-22.028-9.93-44.971-9.93-68.184c0-63.444,24.708-123.084,69.566-167.946
		c44.858-44.859,104.5-69.566,167.944-69.566c63.446,0,123.09,24.708,167.95,69.566C-12.652,118.382,12.054,178.022,12.054,241.466z
		 M-80.542,256.936c-0.337-0.054-0.68-0.077-1.024-0.077c-3.318,0-6.194,2.478-6.702,5.757
		c-3.105,20.353-10.542,39.346-22.097,56.45c-1.012,1.502-1.38,3.306-1.033,5.079c0.342,1.781,1.357,3.314,2.851,4.328
		c1.128,0.759,2.439,1.161,3.796,1.161c2.261,0,4.357-1.11,5.62-2.98c12.687-18.78,20.852-39.636,24.266-61.99
		C-74.301,260.966-76.846,257.501-80.542,256.936z M-306.85,127.534c1.365,0,2.673-0.399,3.792-1.162
		c22.95-15.505,49.789-23.701,77.598-23.701c27.813,0,54.646,8.196,77.6,23.701c1.123,0.759,2.438,1.162,3.791,1.162
		c2.249,0,4.355-1.115,5.617-2.985c1.015-1.502,1.386-3.306,1.042-5.082c-0.344-1.779-1.363-3.316-2.863-4.33
		c-25.197-17.023-54.655-26.024-85.186-26.024c-30.528,0-59.988,9.001-85.184,26.028c-1.504,1.01-2.521,2.547-2.861,4.326
		c-0.345,1.775,0.025,3.583,1.041,5.082C-311.202,126.419-309.103,127.534-306.85,127.534z M-344.479,332.073
		c1.404,0,2.751-0.426,3.897-1.239c3.06-2.152,3.79-6.396,1.638-9.446c-14.733-20.871-23.38-45.381-25.016-70.879
		c-0.242-3.7-3.444-6.573-7.203-6.321c-3.73,0.235-6.572,3.465-6.33,7.196c1.804,27.991,11.301,54.897,27.472,77.816
		C-348.757,331.001-346.68,332.073-344.479,332.073z M-290.151,226.878c1.814,0,3.511-0.711,4.789-1.988
		c1.281-1.277,1.988-2.981,1.988-4.793c0-1.808-0.707-3.511-1.988-4.792l-86.359-86.365c-1.282-1.276-2.983-1.986-4.795-1.986
		c-1.81,0-3.517,0.71-4.789,1.982c-1.283,1.281-1.986,2.985-1.986,4.797c0,1.808,0.703,3.513,1.986,4.793l86.363,86.364
		C-293.664,226.167-291.967,226.878-290.151,226.878z M-396.281,146.713c-1.808,0-3.514,0.708-4.789,1.986
		c-1.281,1.282-1.986,2.987-1.986,4.797c0,1.808,0.705,3.512,1.986,4.791l86.361,86.368c1.281,1.278,2.983,1.982,4.796,1.982
		c1.812,0,3.512-0.704,4.789-1.982c1.282-1.285,1.984-2.988,1.984-4.8c0-1.805-0.703-3.508-1.984-4.785l-86.364-86.371
		C-392.768,147.422-394.469,146.713-396.281,146.713z M-59.725,138.819c11.734,11.734,16.508,28.817,13.447,48.103
		c-2.938,18.486-12.822,36.926-27.83,51.926c-17.946,17.956-41.548,28.672-63.138,28.672c-6.409,0-12.505-0.952-18.138-2.826
		l-39.857,39.86l102.611,102.617c4.034,4.034,6.26,9.4,6.26,15.106s-2.226,11.072-6.26,15.106
		c-4.038,4.042-9.398,6.256-15.106,6.256c-5.703,0-11.068-2.214-15.103-6.256l-102.619-102.617l-102.619,102.617
		c-4.028,4.03-9.394,6.248-15.104,6.248c-5.716,0-11.084-2.218-15.11-6.248c-4.034-4.034-6.256-9.4-6.256-15.106
		s2.222-11.072,6.256-15.106l102.617-102.617l-36.266-36.268l-7.044,7.038c-3.283,3.283-7.648,5.087-12.288,5.087
		c-4.642,0-9.005-1.804-12.288-5.087l-97.274-97.274c-1.282-1.279-1.986-2.983-1.986-4.791c0-1.812,0.705-3.515,1.986-4.795
		c1.281-1.279,2.981-1.986,4.791-1.986c1.812,0,3.52,0.707,4.795,1.986l97.274,97.274c1.448,1.448,3.96,1.448,5.405,0l11.837-11.831
		c1.279-1.285,2.977-1.99,4.793-1.99c1.812,0,3.507,0.705,4.789,1.99l173.896,173.895c1.475,1.476,3.432,2.28,5.526,2.28
		c2.083,0,4.044-0.805,5.515-2.28c1.475-1.475,2.288-3.441,2.288-5.524s-0.813-4.042-2.288-5.521l-106.308-106.311
		c-0.482-0.286-0.895-0.604-1.241-0.96c-0.353-0.349-0.666-0.759-0.964-1.239l-65.383-65.385c-0.002-0.012-0.007-0.012-0.013-0.012
		l-0.029-0.031c-1.254-1.277-1.941-2.965-1.941-4.75c0-1.812,0.705-3.52,1.984-4.793l11.833-11.833
		c1.49-1.491,1.49-3.918,0.004-5.403l-97.274-97.28c-1.282-1.275-1.986-2.981-1.986-4.789c0-1.812,0.705-3.515,1.986-4.796
		c1.281-1.278,2.985-1.986,4.789-1.986c1.816,0,3.516,0.708,4.797,1.986l97.274,97.28c6.771,6.775,6.775,17.791,0,24.572
		l-7.046,7.042l36.275,36.271l39.855-39.86c-8.287-24.938,1.992-57.426,25.852-81.283c15.002-15.002,33.44-24.88,51.926-27.824
		c3.776-0.597,7.524-0.902,11.142-0.902C-81.887,124.472-69.11,129.435-59.725,138.819z M-155.238,250.3l-0.447,1.851l0.62-1.796
		c0.178,0.046,0.343,0.101,0.513,0.162l0.197,0.078c5.168,2.284,10.985,3.438,17.304,3.438c17.905,0,37.855-9.257,53.36-24.762
		c13-13,21.525-28.798,24.021-44.478c2.371-14.882-1.055-27.805-9.638-36.388c-6.787-6.787-16.27-10.376-27.419-10.376
		c-2.9,0-5.912,0.248-8.968,0.732c-15.682,2.497-31.469,11.028-44.47,24.022c-21.458,21.456-30.23,50.509-21.341,70.652l0.083,0.217
		c0.08,0.21,0.142,0.396,0.197,0.589l0.031,0.108c0.05,0.163,0.095,0.317,0.13,0.473c0.035,0.178,0.058,0.371,0.073,0.564
		l0.012,0.117c0.031,0.271,0.052,0.448,0.052,0.619c0,0.193-0.018,0.379-0.039,0.572l-0.014,0.187
		c-0.016,0.178-0.031,0.36-0.062,0.534c-0.039,0.209-0.103,0.418-0.167,0.627l-0.035,0.116c-0.06,0.209-0.101,0.364-0.165,0.503
		c-0.064,0.179-0.161,0.364-0.263,0.55l-0.089,0.179c-0.071,0.146-0.149,0.294-0.24,0.434c-0.095,0.154-0.204,0.286-0.312,0.418
		l-1.554-1.092l1.454,1.224c-0.108,0.139-0.223,0.286-0.346,0.418l-0.13,0.154l-42.981,42.981l11.042,11.041l43.118-43.104
		c0.172-0.155,0.358-0.302,0.546-0.441c0.184-0.144,0.298-0.24,0.417-0.317c0.18-0.116,0.368-0.209,0.557-0.294l0.163-0.086
		c0.151-0.085,0.306-0.162,0.469-0.224c0.174-0.07,0.362-0.124,0.552-0.179l0.188-0.054c0.163-0.043,0.329-0.094,0.496-0.124
		c0.215-0.047,0.439-0.062,0.662-0.077l0.114-0.004c0.513-0.059,0.786-0.035,1.132,0.011l0.11,0.016
		c0.248,0.023,0.416,0.043,0.575,0.07C-155.557,250.199-155.399,250.246-155.238,250.3z M-337.661,427.803l102.619-102.621
		l-11.043-11.041l-102.619,102.617c-1.471,1.479-2.284,3.438-2.284,5.521s0.813,4.042,2.284,5.524
		c1.471,1.468,3.434,2.28,5.525,2.28C-341.09,430.083-339.131,429.271-337.661,427.803z M-141.81,181.452
		c1.247,0,2.499-0.477,3.448-1.429c8.439-8.44,18.684-13.97,28.856-15.59c9.582-1.523,17.905,0.666,23.415,6.181
		c1.903,1.903,4.998,1.903,6.905,0c1.903-1.907,1.903-4.996,0-6.901c-7.784-7.782-19.094-10.95-31.858-8.92
		c-12.182,1.938-24.336,8.446-34.218,18.328c-1.905,1.905-1.905,4.998,0,6.903C-144.309,180.976-143.062,181.452-141.81,181.452z
		 M-130.149,237.772c13.778,0,29.218-6.505,41.55-18.841c1.911-1.903,1.911-4.994,0-6.903c-1.903-1.905-4.99-1.905-6.897,0
		c-8.44,8.436-18.684,13.972-28.852,15.592c-9.594,1.525-17.91-0.674-23.418-6.185c-1.903-1.905-4.998-1.905-6.897,0
		c-1.909,1.905-1.909,4.992,0,6.904C-148.304,234.702-139.62,237.772-130.149,237.772z"/>
</g>
</svg>
