<?xml version="1.0" encoding="utf-8"?>
<!-- Generator: Adobe Illustrator 16.0.4, SVG Export Plug-In . SVG Version: 6.00 Build 0)  -->
<!DOCTYPE svg PUBLIC "-//W3C//DTD SVG 1.1//EN" "http://www.w3.org/Graphics/SVG/1.1/DTD/svg11.dtd">
<svg version="1.1"
	 id="svg153" xmlns:dc="http://purl.org/dc/elements/1.1/" xmlns:cc="http://creativecommons.org/ns#" xmlns:rdf="http://www.w3.org/1999/02/22-rdf-syntax-ns#"
	 xmlns="http://www.w3.org/2000/svg" xmlns:xlink="http://www.w3.org/1999/xlink" x="0px" y="0px" width="490.044px"
	 height="453.4px" viewBox="-477.99 0 490.044 453.4" enable-background="new -477.99 0 490.044 453.4" xml:space="preserve">
<desc  id="desc3066">The United States of America flag, produced by Daniel McRae</desc>
<g>
	<path fill="#AF194B" d="M4.544,244.37c0,22.301-3.089,44.367-9.179,65.605c-0.831,2.889-3.508,4.908-6.508,4.908
		c-0.636,0-1.263-0.092-1.874-0.264c-1.738-0.502-3.181-1.648-4.058-3.229c-0.881-1.588-1.088-3.416-0.583-5.156
		c5.734-20.023,8.641-40.836,8.641-61.865c0-123.49-100.461-223.956-223.953-223.956c-123.488,0-223.952,100.465-223.952,223.956
		c0,21.895,3.15,43.529,9.365,64.297c1.071,3.584-0.973,7.363-4.55,8.439c-0.633,0.189-1.289,0.285-1.946,0.285
		c-2.973,0-5.642-1.988-6.497-4.84c-6.587-22.027-9.931-44.971-9.931-68.184c0-63.443,24.708-123.083,69.566-167.945
		c44.858-44.859,104.5-69.566,167.944-69.566c63.445,0,123.09,24.708,167.95,69.566C-20.162,121.287,4.544,180.927,4.544,244.37z
		 M-88.052,259.841c-0.337-0.055-0.681-0.078-1.024-0.078c-3.317,0-6.193,2.479-6.702,5.758
		c-3.104,20.354-10.542,39.346-22.097,56.449c-1.012,1.502-1.38,3.307-1.033,5.08c0.342,1.781,1.357,3.314,2.852,4.328
		c1.128,0.758,2.438,1.16,3.796,1.16c2.261,0,4.356-1.109,5.62-2.98c12.687-18.779,20.852-39.635,24.266-61.988
		C-81.81,263.87-84.356,260.405-88.052,259.841z M-314.36,130.439c1.365,0,2.673-0.399,3.792-1.162
		c22.95-15.505,49.789-23.701,77.599-23.701c27.812,0,54.646,8.196,77.6,23.701c1.123,0.759,2.438,1.162,3.791,1.162
		c2.249,0,4.355-1.115,5.617-2.985c1.015-1.502,1.386-3.306,1.042-5.082c-0.344-1.779-1.363-3.316-2.863-4.33
		c-25.197-17.022-54.655-26.024-85.186-26.024c-30.528,0-59.988,9.001-85.185,26.028c-1.504,1.01-2.521,2.547-2.86,4.326
		c-0.346,1.775,0.024,3.583,1.041,5.082C-318.712,129.324-316.613,130.439-314.36,130.439z M-351.989,334.978
		c1.404,0,2.751-0.426,3.897-1.238c3.06-2.152,3.79-6.396,1.638-9.447c-14.733-20.871-23.38-45.381-25.016-70.879
		c-0.242-3.699-3.444-6.572-7.203-6.32c-3.73,0.234-6.572,3.465-6.33,7.195c1.804,27.992,11.301,54.896,27.472,77.816
		C-356.266,333.905-354.19,334.978-351.989,334.978z M-297.661,229.782c1.814,0,3.511-0.711,4.789-1.987
		c1.281-1.277,1.988-2.981,1.988-4.793c0-1.808-0.707-3.511-1.988-4.792l-86.359-86.365c-1.281-1.276-2.982-1.986-4.795-1.986
		c-1.81,0-3.517,0.71-4.789,1.982c-1.282,1.281-1.985,2.985-1.985,4.797c0,1.808,0.703,3.513,1.985,4.793l86.363,86.364
		C-301.174,229.071-299.476,229.782-297.661,229.782z M-403.791,149.618c-1.808,0-3.514,0.708-4.789,1.986
		c-1.281,1.282-1.986,2.987-1.986,4.797c0,1.808,0.705,3.512,1.986,4.791l86.361,86.368c1.28,1.277,2.982,1.982,4.796,1.982
		c1.812,0,3.512-0.705,4.789-1.982c1.282-1.285,1.983-2.988,1.983-4.801c0-1.805-0.703-3.508-1.983-4.785l-86.364-86.37
		C-400.278,150.327-401.979,149.618-403.791,149.618z M-67.235,141.724c11.734,11.734,16.509,28.817,13.447,48.103
		c-2.938,18.486-12.822,36.926-27.83,51.926c-17.946,17.955-41.548,28.672-63.138,28.672c-6.409,0-12.505-0.953-18.138-2.826
		l-39.857,39.859l102.611,102.617c4.033,4.035,6.26,9.4,6.26,15.107c0,5.705-2.227,11.07-6.26,15.105
		c-4.038,4.041-9.398,6.256-15.106,6.256c-5.703,0-11.068-2.215-15.103-6.256l-102.619-102.617l-102.619,102.617
		c-4.028,4.029-9.395,6.248-15.104,6.248c-5.716,0-11.084-2.219-15.109-6.248c-4.034-4.035-6.256-9.4-6.256-15.105
		c0-5.707,2.222-11.072,6.256-15.107l102.617-102.617l-36.267-36.268l-7.044,7.039c-3.283,3.281-7.647,5.086-12.288,5.086
		c-4.642,0-9.005-1.805-12.288-5.086l-97.273-97.275c-1.282-1.279-1.986-2.983-1.986-4.791c0-1.812,0.705-3.515,1.986-4.795
		c1.28-1.279,2.98-1.986,4.791-1.986c1.812,0,3.52,0.707,4.795,1.986l97.273,97.275c1.448,1.447,3.96,1.447,5.405,0l11.837-11.832
		c1.279-1.285,2.978-1.99,4.793-1.99c1.812,0,3.507,0.705,4.789,1.99l173.896,173.895c1.475,1.477,3.432,2.281,5.525,2.281
		c2.083,0,4.044-0.805,5.516-2.281c1.475-1.475,2.288-3.439,2.288-5.523c0-2.082-0.813-4.041-2.288-5.521l-106.309-106.311
		c-0.481-0.285-0.895-0.604-1.241-0.961c-0.353-0.348-0.666-0.758-0.964-1.238l-65.383-65.385c-0.002-0.012-0.007-0.012-0.013-0.012
		l-0.029-0.031c-1.254-1.277-1.94-2.965-1.94-4.75c0-1.812,0.704-3.52,1.983-4.793l11.833-11.833c1.49-1.491,1.49-3.918,0.004-5.403
		l-97.273-97.28c-1.282-1.275-1.986-2.981-1.986-4.789c0-1.812,0.705-3.515,1.986-4.796c1.28-1.278,2.984-1.986,4.789-1.986
		c1.815,0,3.516,0.708,4.797,1.986l97.273,97.28c6.771,6.775,6.775,17.791,0,24.571l-7.046,7.043l36.275,36.271l39.854-39.861
		c-8.287-24.937,1.992-57.425,25.853-81.282c15.002-15.002,33.439-24.88,51.926-27.824c3.776-0.597,7.524-0.902,11.142-0.902
		C-89.397,127.377-76.62,132.34-67.235,141.724z M-162.748,253.204l-0.447,1.852l0.62-1.797c0.178,0.047,0.343,0.102,0.513,0.162
		l0.197,0.078c5.168,2.285,10.985,3.439,17.305,3.439c17.904,0,37.854-9.258,53.359-24.764c13-12.999,21.525-28.797,24.021-44.477
		c2.371-14.882-1.056-27.805-9.639-36.388c-6.787-6.787-16.27-10.376-27.419-10.376c-2.899,0-5.912,0.248-8.968,0.732
		c-15.682,2.497-31.469,11.028-44.47,24.022c-21.458,21.456-30.23,50.509-21.341,70.651l0.083,0.217
		c0.079,0.211,0.142,0.396,0.196,0.59l0.031,0.107c0.05,0.164,0.095,0.318,0.13,0.475c0.035,0.178,0.059,0.369,0.073,0.562
		l0.012,0.117c0.031,0.271,0.052,0.449,0.052,0.619c0,0.193-0.018,0.379-0.038,0.572l-0.015,0.188
		c-0.016,0.178-0.031,0.359-0.062,0.533c-0.039,0.209-0.104,0.418-0.167,0.627l-0.035,0.117c-0.061,0.209-0.102,0.363-0.165,0.502
		c-0.064,0.18-0.161,0.363-0.263,0.551l-0.09,0.178c-0.07,0.146-0.148,0.295-0.239,0.436c-0.096,0.152-0.204,0.285-0.312,0.418
		l-1.554-1.094l1.454,1.225c-0.108,0.139-0.224,0.287-0.347,0.418l-0.13,0.154l-42.98,42.98l11.042,11.041l43.118-43.104
		c0.172-0.154,0.357-0.303,0.546-0.441c0.184-0.143,0.298-0.24,0.417-0.316c0.18-0.115,0.368-0.209,0.557-0.295l0.163-0.086
		c0.151-0.084,0.306-0.162,0.469-0.223c0.174-0.07,0.362-0.125,0.553-0.18l0.188-0.055c0.163-0.043,0.329-0.094,0.496-0.123
		c0.215-0.047,0.438-0.062,0.662-0.078l0.114-0.004c0.513-0.059,0.785-0.033,1.132,0.012l0.109,0.016
		c0.248,0.023,0.416,0.043,0.575,0.07C-163.067,253.104-162.909,253.151-162.748,253.204z M-345.171,430.708l102.619-102.621
		l-11.043-11.041l-102.619,102.617c-1.471,1.479-2.284,3.438-2.284,5.521c0,2.082,0.813,4.041,2.284,5.523
		c1.471,1.467,3.434,2.279,5.524,2.279C-348.599,432.987-346.64,432.177-345.171,430.708z M-149.32,184.357
		c1.247,0,2.499-0.477,3.448-1.429c8.439-8.44,18.684-13.97,28.856-15.59c9.582-1.523,17.904,0.666,23.415,6.181
		c1.902,1.903,4.998,1.903,6.904,0c1.903-1.907,1.903-4.996,0-6.901c-7.784-7.782-19.094-10.95-31.857-8.92
		c-12.183,1.938-24.336,8.446-34.219,18.328c-1.904,1.905-1.904,4.998,0,6.903C-151.819,183.881-150.572,184.357-149.32,184.357z
		 M-137.659,240.677c13.778,0,29.218-6.506,41.55-18.841c1.911-1.903,1.911-4.994,0-6.903c-1.902-1.905-4.989-1.905-6.896,0
		c-8.44,8.436-18.685,13.973-28.853,15.592c-9.594,1.525-17.909-0.674-23.418-6.185c-1.902-1.905-4.998-1.905-6.896,0
		c-1.909,1.905-1.909,4.991,0,6.903C-155.814,237.606-147.13,240.677-137.659,240.677z"/>
</g>
</svg>
