<?xml version="1.0" encoding="utf-8"?>
<!-- Generator: Adobe Illustrator 16.0.4, SVG Export Plug-In . SVG Version: 6.00 Build 0)  -->
<!DOCTYPE svg PUBLIC "-//W3C//DTD SVG 1.1//EN" "http://www.w3.org/Graphics/SVG/1.1/DTD/svg11.dtd">
<svg version="1.1"
	 id="svg153" xmlns:dc="http://purl.org/dc/elements/1.1/" xmlns:cc="http://creativecommons.org/ns#" xmlns:rdf="http://www.w3.org/1999/02/22-rdf-syntax-ns#"
	 xmlns="http://www.w3.org/2000/svg" xmlns:xlink="http://www.w3.org/1999/xlink" x="0px" y="0px" width="490.045px"
	 height="453.4px" viewBox="0 0 490.045 453.4" enable-background="new 0 0 490.045 453.4" xml:space="preserve">
<desc  id="desc3066">The United States of America flag, produced by Daniel McRae</desc>
<g>
	<path fill="#FFFFFF" d="M482.534,244.37c0,22.301-3.088,44.367-9.178,65.605c-0.832,2.889-3.508,4.907-6.508,4.907
		c-0.637,0-1.264-0.092-1.875-0.264c-1.738-0.502-3.182-1.647-4.059-3.229c-0.881-1.588-1.088-3.416-0.582-5.156
		c5.734-20.022,8.641-40.836,8.641-61.864c0-123.49-100.461-223.956-223.953-223.956c-123.488,0-223.952,100.465-223.952,223.956
		c0,21.896,3.15,43.528,9.365,64.297c1.071,3.584-0.973,7.362-4.55,8.438c-0.633,0.189-1.289,0.285-1.946,0.285
		c-2.973,0-5.642-1.988-6.497-4.84c-6.587-22.027-9.931-44.971-9.931-68.184c0-63.443,24.708-123.083,69.565-167.945
		c44.858-44.859,104.5-69.566,167.944-69.566c63.446,0,123.09,24.708,167.95,69.566C457.829,121.287,482.534,180.927,482.534,244.37
		z M389.938,259.841c-0.336-0.055-0.68-0.078-1.023-0.078c-3.316,0-6.193,2.479-6.701,5.758
		c-3.105,20.354-10.543,39.347-22.098,56.449c-1.012,1.502-1.381,3.307-1.033,5.08c0.342,1.781,1.357,3.314,2.852,4.328
		c1.129,0.758,2.438,1.16,3.797,1.16c2.26,0,4.355-1.109,5.619-2.98c12.688-18.779,20.852-39.635,24.266-61.988
		C396.18,263.87,393.635,260.405,389.938,259.841z M163.631,130.439c1.364,0,2.673-0.399,3.792-1.162
		c22.949-15.505,49.789-23.701,77.599-23.701c27.811,0,54.647,8.196,77.6,23.701c1.123,0.759,2.438,1.162,3.791,1.162
		c2.248,0,4.355-1.115,5.617-2.985c1.016-1.502,1.385-3.306,1.041-5.082c-0.344-1.779-1.361-3.316-2.861-4.33
		c-25.197-17.022-54.656-26.024-85.187-26.024c-30.528,0-59.988,9.001-85.185,26.028c-1.504,1.01-2.521,2.547-2.86,4.326
		c-0.346,1.775,0.024,3.583,1.041,5.082C159.279,129.324,161.378,130.439,163.631,130.439z M126.002,334.978
		c1.403,0,2.751-0.426,3.896-1.237c3.06-2.152,3.79-6.396,1.638-9.447c-14.732-20.871-23.38-45.381-25.016-70.879
		c-0.242-3.699-3.444-6.572-7.203-6.32c-3.729,0.234-6.572,3.466-6.33,7.195c1.804,27.992,11.301,54.896,27.473,77.815
		C121.725,333.905,123.801,334.978,126.002,334.978z M180.329,229.782c1.814,0,3.512-0.711,4.789-1.987
		c1.281-1.277,1.988-2.981,1.988-4.793c0-1.808-0.707-3.511-1.988-4.792L98.76,131.845c-1.281-1.276-2.982-1.986-4.795-1.986
		c-1.811,0-3.518,0.71-4.789,1.982c-1.282,1.281-1.985,2.985-1.985,4.797c0,1.808,0.703,3.513,1.985,4.793l86.362,86.364
		C176.817,229.071,178.515,229.782,180.329,229.782z M74.199,149.618c-1.808,0-3.514,0.708-4.789,1.986
		c-1.28,1.282-1.985,2.987-1.985,4.797c0,1.808,0.705,3.512,1.985,4.791l86.361,86.368c1.28,1.277,2.982,1.982,4.796,1.982
		c1.812,0,3.512-0.705,4.789-1.982c1.282-1.285,1.983-2.988,1.983-4.801c0-1.805-0.703-3.508-1.983-4.785l-86.364-86.37
		C77.713,150.327,76.012,149.618,74.199,149.618z M410.757,141.724c11.732,11.734,16.508,28.817,13.445,48.103
		c-2.938,18.486-12.82,36.926-27.83,51.926c-17.945,17.955-41.547,28.672-63.137,28.672c-6.41,0-12.506-0.953-18.139-2.826
		l-39.857,39.859L377.85,410.075c4.033,4.035,6.26,9.399,6.26,15.106c0,5.705-2.227,11.07-6.26,15.105
		c-4.037,4.041-9.398,6.256-15.105,6.256c-5.703,0-11.068-2.215-15.104-6.256L245.023,337.67L142.404,440.287
		c-4.028,4.029-9.395,6.248-15.104,6.248c-5.717,0-11.084-2.219-15.109-6.248c-4.034-4.035-6.256-9.4-6.256-15.105
		c0-5.707,2.222-11.071,6.256-15.106l102.617-102.617L178.54,271.19l-7.044,7.039c-3.282,3.28-7.646,5.086-12.288,5.086
		s-9.005-1.806-12.287-5.086l-97.273-97.275c-1.282-1.279-1.986-2.983-1.986-4.791c0-1.812,0.705-3.515,1.986-4.795
		c1.28-1.279,2.98-1.986,4.791-1.986c1.812,0,3.52,0.707,4.795,1.986l97.273,97.275c1.447,1.446,3.96,1.446,5.404,0l11.837-11.832
		c1.279-1.285,2.979-1.99,4.793-1.99c1.812,0,3.508,0.705,4.789,1.99l173.897,173.895c1.475,1.477,3.432,2.281,5.523,2.281
		c2.084,0,4.045-0.806,5.518-2.281c1.475-1.475,2.287-3.439,2.287-5.523c0-2.082-0.812-4.041-2.287-5.521L261.958,313.351
		c-0.48-0.285-0.895-0.604-1.24-0.961c-0.354-0.348-0.666-0.758-0.963-1.238l-65.384-65.385c-0.002-0.012-0.007-0.012-0.013-0.012
		l-0.029-0.031c-1.254-1.277-1.939-2.965-1.939-4.75c0-1.812,0.704-3.52,1.982-4.793l11.833-11.833
		c1.49-1.491,1.49-3.918,0.004-5.403l-97.272-97.28c-1.282-1.275-1.986-2.981-1.986-4.789c0-1.812,0.705-3.515,1.986-4.796
		c1.28-1.278,2.984-1.986,4.789-1.986c1.814,0,3.516,0.708,4.797,1.986l97.273,97.28c6.771,6.775,6.774,17.791,0,24.571
		l-7.047,7.043l36.275,36.271l39.854-39.861c-8.287-24.937,1.992-57.425,25.854-81.282c15.002-15.002,33.439-24.88,51.926-27.824
		c3.775-0.597,7.523-0.902,11.143-0.902C388.594,127.377,401.37,132.34,410.757,141.724z M315.243,253.204l-0.447,1.852l0.619-1.797
		c0.18,0.047,0.344,0.102,0.514,0.162l0.197,0.078c5.168,2.285,10.984,3.439,17.305,3.439c17.904,0,37.854-9.258,53.359-24.765
		c13-12.999,21.525-28.797,24.021-44.477c2.371-14.882-1.057-27.805-9.639-36.388c-6.787-6.787-16.271-10.376-27.42-10.376
		c-2.898,0-5.912,0.248-8.969,0.732c-15.682,2.497-31.469,11.028-44.469,24.022c-21.459,21.456-30.23,50.509-21.342,70.651
		l0.084,0.218c0.078,0.211,0.141,0.396,0.195,0.59l0.031,0.106c0.049,0.164,0.096,0.317,0.129,0.476
		c0.035,0.178,0.061,0.369,0.074,0.562l0.012,0.117c0.031,0.271,0.053,0.448,0.053,0.618c0,0.193-0.02,0.379-0.039,0.572
		l-0.016,0.188c-0.016,0.178-0.029,0.358-0.061,0.532c-0.039,0.209-0.105,0.418-0.168,0.627l-0.035,0.117
		c-0.061,0.209-0.102,0.363-0.164,0.502c-0.064,0.181-0.162,0.363-0.264,0.552l-0.09,0.178c-0.07,0.146-0.148,0.295-0.238,0.437
		c-0.096,0.151-0.205,0.285-0.312,0.418l-1.555-1.095l1.455,1.226c-0.109,0.139-0.225,0.287-0.348,0.418l-0.129,0.154l-42.98,42.979
		l11.041,11.041l43.119-43.104c0.172-0.153,0.355-0.303,0.545-0.44c0.184-0.144,0.299-0.24,0.418-0.316
		c0.18-0.114,0.367-0.209,0.557-0.295l0.162-0.086c0.152-0.084,0.307-0.162,0.471-0.223c0.174-0.07,0.361-0.125,0.553-0.181
		l0.188-0.055c0.162-0.043,0.328-0.094,0.496-0.123c0.215-0.047,0.438-0.062,0.662-0.078l0.113-0.004
		c0.514-0.059,0.785-0.033,1.133,0.012l0.109,0.017c0.248,0.022,0.416,0.043,0.574,0.069
		C314.925,253.104,315.081,253.151,315.243,253.204z M132.82,430.708l102.619-102.621l-11.043-11.041L121.777,419.663
		c-1.471,1.479-2.284,3.438-2.284,5.521c0,2.082,0.813,4.041,2.284,5.523c1.471,1.467,3.435,2.279,5.524,2.279
		C129.392,432.987,131.351,432.177,132.82,430.708z M328.671,184.357c1.246,0,2.5-0.477,3.447-1.429
		c8.439-8.44,18.686-13.97,28.857-15.59c9.582-1.523,17.904,0.666,23.414,6.181c1.902,1.903,4.998,1.903,6.904,0
		c1.902-1.907,1.902-4.996,0-6.901c-7.783-7.782-19.094-10.95-31.857-8.92c-12.182,1.938-24.336,8.446-34.219,18.328
		c-1.904,1.905-1.904,4.998,0,6.903C326.173,183.881,327.419,184.357,328.671,184.357z M340.331,240.677
		c13.779,0,29.219-6.506,41.551-18.841c1.912-1.903,1.912-4.994,0-6.903c-1.902-1.905-4.988-1.905-6.896,0
		c-8.439,8.436-18.684,13.973-28.852,15.591c-9.596,1.525-17.91-0.674-23.418-6.185c-1.902-1.905-4.998-1.905-6.896,0
		c-1.91,1.905-1.91,4.991,0,6.903C322.177,237.606,330.86,240.677,340.331,240.677z"/>
</g>
</svg>
