<?xml version="1.0" encoding="utf-8"?>
<!-- Generator: Adobe Illustrator 16.0.4, SVG Export Plug-In . SVG Version: 6.00 Build 0)  -->
<!DOCTYPE svg PUBLIC "-//W3C//DTD SVG 1.1//EN" "http://www.w3.org/Graphics/SVG/1.1/DTD/svg11.dtd">
<svg version="1.1"
	 id="svg153" xmlns:dc="http://purl.org/dc/elements/1.1/" xmlns:cc="http://creativecommons.org/ns#" xmlns:rdf="http://www.w3.org/1999/02/22-rdf-syntax-ns#"
	 xmlns="http://www.w3.org/2000/svg" xmlns:xlink="http://www.w3.org/1999/xlink" x="0px" y="0px" width="490.043px"
	 height="453.4px" viewBox="0 0 490.043 453.4" enable-background="new 0 0 490.043 453.4" xml:space="preserve">
<desc  id="desc3066">The United States of America flag, produced by Daniel McRae</desc>
<g>
	<path fill="#AF194B" d="M429.155,190.99c0,17.289-2.396,34.396-7.116,50.86c-0.646,2.239-2.72,3.805-5.045,3.805
		c-0.493,0-0.979-0.07-1.453-0.204c-1.348-0.39-2.467-1.278-3.146-2.504c-0.683-1.23-0.843-2.647-0.451-3.997
		c4.445-15.522,6.699-31.658,6.699-47.961c0-95.736-77.884-173.623-173.622-173.623c-95.735,0-173.62,77.886-173.62,173.623
		c0,16.975,2.442,33.746,7.26,49.847c0.831,2.779-0.754,5.708-3.527,6.542c-0.491,0.146-1,0.221-1.509,0.221
		c-2.305,0-4.373-1.539-5.037-3.752c-5.106-17.077-7.699-34.864-7.699-52.859c0-49.185,19.155-95.421,53.931-130.201
		c34.776-34.777,81.015-53.931,130.2-53.931c49.187,0,95.425,19.155,130.205,53.931C410.001,95.569,429.155,141.805,429.155,190.99z
		 M357.369,202.984c-0.262-0.042-0.527-0.061-0.793-0.061c-2.572,0-4.803,1.922-5.196,4.464c-2.405,15.78-8.173,30.502-17.13,43.762
		c-0.785,1.164-1.07,2.564-0.803,3.938c0.267,1.381,1.054,2.57,2.212,3.355c0.875,0.588,1.89,0.898,2.942,0.898
		c1.752,0,3.377-0.859,4.356-2.31c9.836-14.56,16.166-30.728,18.812-48.058C362.208,206.108,360.234,203.422,357.369,202.984z
		 M181.923,102.665c1.058,0,2.072-0.31,2.939-0.901c17.792-12.02,38.599-18.374,60.16-18.374s42.363,6.354,60.16,18.374
		c0.87,0.588,1.891,0.901,2.938,0.901c1.741,0,3.376-0.865,4.354-2.314c0.786-1.165,1.072-2.563,0.808-3.94
		c-0.267-1.379-1.058-2.57-2.22-3.356c-19.535-13.197-42.371-20.175-66.042-20.175c-23.667,0-46.506,6.978-66.04,20.178
		c-1.167,0.783-1.954,1.975-2.217,3.354c-0.269,1.376,0.019,2.778,0.807,3.94C178.549,101.8,180.176,102.665,181.923,102.665z
		 M152.75,261.233c1.089,0,2.133-0.33,3.021-0.959c2.372-1.668,2.938-4.959,1.27-7.323c-11.422-16.181-18.125-35.182-19.394-54.95
		c-0.188-2.868-2.67-5.095-5.584-4.899c-2.891,0.181-5.095,2.687-4.907,5.578c1.398,21.701,8.761,42.557,21.297,60.328
		C149.435,260.401,151.043,261.233,152.75,261.233z M194.869,179.681c1.406,0,2.722-0.551,3.713-1.541
		c0.993-0.99,1.541-2.311,1.541-3.716c0-1.402-0.548-2.722-1.541-3.715l-66.951-66.955c-0.994-0.99-2.312-1.54-3.717-1.54
		c-1.403,0-2.727,0.55-3.713,1.537c-0.994,0.993-1.539,2.314-1.539,3.719c0,1.401,0.545,2.723,1.539,3.716l66.954,66.954
		C192.145,179.13,193.461,179.681,194.869,179.681z M112.59,117.533c-1.402,0-2.724,0.549-3.713,1.539
		c-0.993,0.994-1.54,2.316-1.54,3.719c0,1.402,0.547,2.723,1.54,3.714l66.953,66.958c0.992,0.99,2.312,1.537,3.718,1.537
		c1.405,0,2.723-0.546,3.713-1.537c0.993-0.997,1.537-2.317,1.537-3.722c0-1.399-0.545-2.72-1.537-3.71l-66.955-66.959
		C115.314,118.083,113.995,117.533,112.59,117.533z M373.508,111.413c9.096,9.097,12.799,22.341,10.424,37.292
		c-2.277,14.332-9.938,28.627-21.574,40.256c-13.912,13.92-32.211,22.229-48.947,22.229c-4.971,0-9.695-0.739-14.062-2.191
		l-30.898,30.9l79.55,79.556c3.127,3.128,4.853,7.287,4.853,11.712c0,4.423-1.726,8.582-4.853,11.71
		c-3.131,3.133-7.286,4.851-11.71,4.851c-4.422,0-8.582-1.718-11.709-4.851l-79.557-79.555l-79.556,79.555
		c-3.124,3.124-7.284,4.845-11.71,4.845c-4.431,0-8.592-1.721-11.713-4.845c-3.127-3.128-4.85-7.287-4.85-11.71
		c0-4.425,1.723-8.584,4.85-11.712l79.554-79.556l-28.116-28.116l-5.46,5.458c-2.545,2.542-5.928,3.942-9.527,3.942
		c-3.598,0-6.98-1.4-9.526-3.942l-75.412-75.414c-0.994-0.991-1.54-2.312-1.54-3.714c0-1.404,0.547-2.725,1.54-3.717
		c0.992-0.991,2.31-1.54,3.714-1.54c1.405,0,2.729,0.548,3.718,1.54L176.4,209.81c1.123,1.121,3.07,1.121,4.19,0l9.176-9.173
		c0.992-0.996,2.309-1.542,3.716-1.542c1.405,0,2.719,0.546,3.713,1.542L332.009,335.45c1.144,1.145,2.66,1.769,4.282,1.769
		c1.616,0,3.136-0.625,4.275-1.769c1.146-1.144,1.774-2.667,1.774-4.281c0-1.615-0.63-3.133-1.774-4.281l-82.416-82.419
		c-0.373-0.22-0.693-0.467-0.961-0.743c-0.274-0.271-0.518-0.588-0.748-0.959l-50.688-50.691c-0.001-0.009-0.006-0.009-0.01-0.009
		l-0.023-0.024c-0.972-0.99-1.503-2.298-1.503-3.682c0-1.405,0.546-2.729,1.537-3.716l9.174-9.174
		c1.155-1.156,1.155-3.038,0.003-4.189L139.52,95.862c-0.994-0.989-1.54-2.311-1.54-3.713c0-1.405,0.546-2.725,1.54-3.718
		c0.993-0.991,2.313-1.54,3.713-1.54c1.407,0,2.726,0.549,3.719,1.54l75.411,75.417c5.25,5.252,5.253,13.793,0,19.049l-5.462,5.46
		l28.124,28.119l30.897-30.903c-6.425-19.333,1.544-44.519,20.042-63.014c11.632-11.63,25.925-19.288,40.257-21.571
		c2.928-0.462,5.834-0.699,8.639-0.699C356.326,100.291,366.23,104.138,373.508,111.413z M299.461,197.839l-0.348,1.436l0.479-1.393
		c0.14,0.036,0.267,0.079,0.398,0.125l0.151,0.061c4.008,1.771,8.517,2.667,13.416,2.667c13.881,0,29.347-7.177,41.367-19.199
		c10.078-10.077,16.688-22.325,18.622-34.48c1.839-11.538-0.817-21.556-7.473-28.21c-5.263-5.261-12.614-8.043-21.257-8.043
		c-2.247,0-4.584,0.192-6.953,0.567c-12.156,1.936-24.396,8.549-34.475,18.623c-16.637,16.634-23.437,39.158-16.545,54.773
		l0.063,0.169c0.062,0.163,0.108,0.306,0.151,0.457l0.023,0.083c0.038,0.127,0.073,0.246,0.1,0.369
		c0.027,0.138,0.047,0.286,0.06,0.435l0.009,0.091c0.023,0.21,0.04,0.348,0.04,0.479c0,0.15-0.015,0.294-0.028,0.444l-0.014,0.146
		c-0.012,0.138-0.023,0.277-0.047,0.412c-0.03,0.162-0.082,0.324-0.131,0.486l-0.026,0.091c-0.047,0.162-0.079,0.281-0.128,0.389
		c-0.049,0.14-0.125,0.282-0.203,0.428l-0.068,0.138c-0.056,0.113-0.116,0.229-0.188,0.338c-0.074,0.117-0.158,0.221-0.241,0.324
		l-1.206-0.848l1.129,0.949c-0.084,0.108-0.175,0.223-0.271,0.324l-0.101,0.12l-33.319,33.32l8.56,8.559l33.428-33.417
		c0.135-0.12,0.275-0.235,0.424-0.341c0.143-0.111,0.231-0.187,0.324-0.245c0.139-0.09,0.285-0.163,0.432-0.229l0.126-0.066
		c0.116-0.065,0.235-0.126,0.364-0.173c0.134-0.054,0.279-0.097,0.429-0.14l0.146-0.042c0.125-0.033,0.256-0.073,0.385-0.096
		c0.166-0.036,0.34-0.048,0.515-0.061l0.087-0.003c0.398-0.045,0.607-0.026,0.879,0.009l0.084,0.013
		c0.192,0.017,0.322,0.033,0.445,0.053C299.213,197.762,299.335,197.798,299.461,197.839z M158.036,335.449l79.556-79.558
		l-8.561-8.56l-79.557,79.554c-1.14,1.147-1.771,2.665-1.771,4.28c0,1.614,0.63,3.133,1.771,4.282
		c1.141,1.137,2.663,1.768,4.283,1.768C155.378,337.217,156.897,336.588,158.036,335.449z M309.872,144.464
		c0.965,0,1.937-0.37,2.672-1.108c6.543-6.543,14.483-10.83,22.371-12.086c7.429-1.181,13.88,0.516,18.151,4.792
		c1.476,1.475,3.875,1.475,5.354,0c1.476-1.479,1.476-3.873,0-5.35c-6.034-6.033-14.803-8.489-24.698-6.915
		c-9.443,1.502-18.865,6.547-26.527,14.208c-1.478,1.478-1.478,3.875,0,5.353C307.934,144.096,308.9,144.464,309.872,144.464z
		 M318.911,188.127c10.683,0,22.651-5.044,32.212-14.607c1.48-1.475,1.48-3.872,0-5.351c-1.475-1.477-3.867-1.477-5.346,0
		c-6.543,6.54-14.486,10.833-22.368,12.087c-7.438,1.182-13.886-0.522-18.155-4.795c-1.475-1.477-3.875-1.477-5.346,0
		c-1.481,1.477-1.481,3.87,0,5.352C304.836,185.747,311.568,188.127,318.911,188.127z"/>
</g>
<g>
	<g>
		<path fill="#FF4650" d="M347.057,430.002c0,7.369-6.029,13.398-13.398,13.398H156.384c-7.37,0-13.398-6.028-13.398-13.398V370.9
			c0-7.369,6.028-13.398,13.398-13.398h177.274c7.367,0,13.398,6.029,13.398,13.398V430.002L347.057,430.002L347.057,430.002z"/>
	</g>
	<g>
		<path fill="#FFFFFF" d="M181.925,378.359c10.324,0,16.899,4.473,16.899,11.509c0,4.865-3.025,8.746-7.891,10.126
			c5.787,1.118,9.469,5.655,9.469,11.64c0,7.824-6.839,12.756-17.689,12.756h-22.554V378.36L181.925,378.359L181.925,378.359z
			 M171.798,396.771h9.469c3.419,0,5.589-1.84,5.589-4.8c0-2.958-2.17-4.669-5.589-4.669h-9.469V396.771z M171.798,415.382h9.469
			c4.339,0,7.037-1.908,7.037-5.196c0-3.09-2.698-4.995-7.037-4.995h-9.469V415.382z"/>
		<path fill="#FFFFFF" d="M218.882,387.566v9.14h21.963v9.206h-21.963v9.271h25.053v9.205h-36.759v-46.029h36.035v9.207H218.882
			L218.882,387.566z"/>
		<path fill="#FFFFFF" d="M272.805,387.764v36.626H261.1v-36.626h-13.742v-9.469h39.32v9.469H272.805z"/>
		<path fill="#FFFFFF" d="M297.201,415.908l-3.354,8.48h-12.033l19.858-46.028h12.032l19.398,46.028h-12.494l-3.289-8.48H297.201z
			 M307.329,390l-6.707,17.031h13.282L307.329,390z"/>
	</g>
</g>
</svg>
