<?xml version="1.0" encoding="utf-8"?>
<!-- Generator: Adobe Illustrator 16.0.4, SVG Export Plug-In . SVG Version: 6.00 Build 0)  -->
<!DOCTYPE svg PUBLIC "-//W3C//DTD SVG 1.1//EN" "http://www.w3.org/Graphics/SVG/1.1/DTD/svg11.dtd">
<svg version="1.1"
	 id="svg153" xmlns:dc="http://purl.org/dc/elements/1.1/" xmlns:cc="http://creativecommons.org/ns#" xmlns:rdf="http://www.w3.org/1999/02/22-rdf-syntax-ns#"
	 xmlns="http://www.w3.org/2000/svg" xmlns:xlink="http://www.w3.org/1999/xlink" x="0px" y="0px" width="1775.973px"
	 height="453.4px" viewBox="0 0 1775.973 453.4" enable-background="new 0 0 1775.973 453.4" xml:space="preserve">
<g>
	<path fill="#FF4650" d="M1775.971,299.095c0,13.025-10.656,23.685-23.682,23.685h-313.332c-13.025,0-23.682-10.656-23.682-23.685
		V194.633c0-13.025,10.654-23.682,23.682-23.682h313.334c13.021,0,23.682,10.657,23.682,23.682v104.462H1775.971z"/>
</g>
<desc  id="desc3066">The United States of America flag, produced by Daniel McRae</desc>
<g>
	<path fill="#FFFFFF" d="M565.349,181.32c0-2.131-0.819-4.191-2.447-6.182c-1.639-1.99-4.053-2.988-7.254-2.988
		c-3.194,0-6.572,2.276-10.122,6.825c-1.567,1.847-4.092,5.009-7.575,9.488c-3.482,4.478-6.678,8.419-9.591,11.833
		c-2.918,3.411-5.83,6.717-8.743,9.914c-2.912,3.199-5.011,5.51-6.29,6.928c-1.279,1.424-2.559,2.955-3.838,4.586
		c-1.278,1.635-2.099,2.914-2.453,3.836c-0.354,0.928-0.531,2.133-0.531,3.627c0,1.492,0.637,2.953,1.922,4.369
		c1.273,1.424,2.841,2.133,4.689,2.133c1.845,0,3.693-0.709,5.543-2.133c0.991-0.852,1.883-1.705,2.664-2.559
		c0.78-0.852,1.921-2.199,3.41-4.049c1.495-1.848,2.808-3.484,3.948-4.904c1.136-1.42,2.802-3.588,5.006-6.504
		c2.204-2.912,4.159-5.438,5.864-7.569l10.238-12.794v53.518c0,22.746-0.288,41.227-0.853,55.438
		c-0.144,6.113-0.216,10.232-0.216,12.365c0,2.131,0.78,4.195,2.348,6.182c1.562,1.992,3.55,2.988,5.97,2.988
		c2.414,0,4.401-0.996,5.969-2.988c1.562-1.986,2.342-4.051,2.342-6.182c0-2.133-0.104-6.252-0.315-12.365
		c-0.216-6.109-0.393-14.211-0.537-24.307c-0.138-10.092-0.21-23.275-0.21-39.553c0-16.273,0.282-31.73,0.853-46.375
		C565.277,187.646,565.349,183.453,565.349,181.32z"/>
	<path fill="#FFFFFF" d="M656.394,171.085c-16.922,0-30.632,7.677-41.153,23.026c-10.521,15.354-15.775,33.621-15.775,54.799
		c0,21.182,5.255,39.445,15.775,54.797c10.521,15.35,24.231,23.027,41.153,23.027c16.91,0,30.627-7.678,41.148-23.027
		c10.516-15.352,15.775-33.615,15.775-54.797c0-21.178-5.26-39.445-15.775-54.799C687.021,178.762,673.304,171.085,656.394,171.085z
		 M686.134,293.578c-7.891,12.723-17.801,19.082-29.74,19.082c-11.943,0-21.855-6.359-29.746-19.082
		c-7.886-12.719-11.833-27.611-11.833-44.668c0-17.059,3.947-31.945,11.833-44.67c7.891-12.72,17.803-19.082,29.746-19.082
		c11.939,0,21.85,6.362,29.74,19.082c7.891,12.725,11.834,27.611,11.834,44.67C697.968,265.967,694.024,280.859,686.134,293.578z"/>
	<path fill="#FFFFFF" d="M790.286,181.32c0-2.131-0.82-4.191-2.447-6.182c-1.641-1.99-4.055-2.988-7.25-2.988
		c-3.199,0-6.578,2.276-10.127,6.825c-1.566,1.847-4.092,5.009-7.568,9.488c-3.488,4.478-6.684,8.419-9.598,11.833
		c-2.918,3.411-5.83,6.717-8.742,9.914c-2.912,3.199-5.012,5.51-6.291,6.928c-1.279,1.424-2.559,2.955-3.838,4.586
		c-1.279,1.635-2.098,2.914-2.453,3.836c-0.354,0.928-0.531,2.133-0.531,3.627c0,1.492,0.643,2.953,1.922,4.369
		c1.279,1.424,2.84,2.133,4.689,2.133c1.844,0,3.693-0.709,5.543-2.133c0.992-0.852,1.883-1.705,2.664-2.559
		c0.781-0.852,1.922-2.199,3.41-4.049c1.496-1.848,2.809-3.484,3.949-4.904c1.135-1.42,2.801-3.588,5.012-6.504
		c2.197-2.912,4.152-5.438,5.857-7.569l10.238-12.794v53.518c0,22.746-0.287,41.227-0.854,55.438
		c-0.143,6.113-0.215,10.232-0.215,12.365c0,2.131,0.781,4.195,2.348,6.182c1.561,1.992,3.549,2.988,5.969,2.988
		c2.414,0,4.402-0.996,5.969-2.988c1.562-1.986,2.344-4.051,2.344-6.182c0-2.133-0.105-6.252-0.316-12.365
		c-0.215-6.109-0.393-14.211-0.531-24.307c-0.145-10.092-0.217-23.275-0.217-39.553c0-16.273,0.283-31.73,0.854-46.375
		C790.214,187.646,790.286,183.453,790.286,181.32z"/>
	<path fill="#FFFFFF" d="M958.865,297.734c-1.279,0-3.129,0.748-5.543,2.24c-2.42,1.492-5.045,3.092-7.891,4.799
		c-2.842,1.705-7.072,3.303-12.686,4.795c-5.615,1.492-11.906,2.24-18.867,2.24c-15.072,0-27.508-6.895-37.315-20.684
		c-9.807-13.785-14.713-29.812-14.713-48.08c0-18.262,4.906-34.112,14.713-47.546s22.315-20.15,37.526-20.15
		c6.967,0,12.902,1.175,17.803,3.519c4.906,2.346,8.959,4.657,12.154,6.93c3.201,2.277,5.969,3.412,8.316,3.412
		c2.344,0,4.193-0.641,5.543-1.919c1.352-1.279,2.027-3.054,2.027-5.329c0-5.543-4.689-10.52-14.076-14.926
		c-9.381-4.406-19.967-6.609-31.768-6.609c-19.9,0-36.458,8.031-49.677,24.093c-13.223,16.063-19.828,35.714-19.828,58.954
		s6.533,42.93,19.613,59.061c13.073,16.133,29.563,24.201,49.466,24.201c13.643,0,25.549-2.771,35.715-8.318
		c10.162-5.543,15.244-10.586,15.244-15.135C964.623,299.584,962.701,297.734,958.865,297.734z"/>
	<path fill="#FFFFFF" d="M1087.324,310.955c-0.498-0.283-1.35-0.496-2.557-0.639s-2.383-0.461-3.518-0.961
		c-1.141-0.496-2.098-1.844-2.879-4.051c-0.781-2.201-1.207-4.334-1.279-6.396c-0.072-2.059-0.105-5.08-0.105-9.061l1.064-33.477
		c0-11.512-3.129-21.322-9.381-29.422c-6.258-8.102-15.066-12.155-26.436-12.155c-15.217,0-28.008,9.028-38.385,27.081V172.15
		c0-3.267-0.742-5.861-2.236-7.779c-1.49-1.922-3.518-2.879-6.074-2.879c-2.559,0-4.586,0.957-6.08,2.879
		c-1.49,1.918-2.238,3.942-2.238,6.074s0.643,16.598,1.922,43.391c1.279,26.795,1.916,45.023,1.916,54.689
		c-2.846,18.055-4.264,32.088-4.264,42.109s3.268,15.033,9.807,15.033c5.404,0,8.107-3.625,8.107-10.875l-0.643-46.268
		c2.695-10.236,7.463-19.402,14.285-27.504c6.822-8.104,13.895-12.154,21.215-12.154s13.039,2.984,17.164,8.953
		c4.121,5.973,6.18,13.791,6.18,23.457l-0.852,39.229c0,8.248,1.029,14.5,3.096,18.764c2.059,4.266,5.785,6.398,11.189,6.398
		c3.129,0,5.865-1.246,8.213-3.732c2.342-2.486,3.516-5.576,3.516-9.275C1088.072,311.809,1087.824,311.24,1087.324,310.955z"/>
	<path fill="#FFFFFF" d="M1186.896,271.617c8.883-5.332,13.328-13.111,13.328-23.348s-3.594-18.549-10.77-24.945
		c-7.182-6.398-16.49-9.596-27.93-9.596c-11.445,0-21.535,4.125-30.279,12.367c-8.742,8.244-14.678,18.764-17.801,31.555
		c-2.559-1.279-4.691-1.92-6.396-1.92s-3.168,0.607-4.375,1.814c-1.207,1.209-1.811,2.879-1.811,5.012
		c0,5.115,3.766,8.814,11.303,11.086c0.709,14.643,5.398,27.152,14.07,37.525c8.67,10.377,20.398,15.566,35.184,15.566
		c9.52,0,18.367-2.559,26.541-7.678c8.172-5.117,12.264-9.662,12.264-13.645c0-1.564-0.537-2.879-1.6-3.945
		c-1.068-1.066-2.492-1.6-4.264-1.6c-1.783,0-5.51,2.205-11.197,6.611c-2.131,1.564-5.26,3.02-9.379,4.369
		c-4.125,1.354-8.6,2.025-13.434,2.025c-8.102,0-15.455-3.588-22.066-10.766s-10.344-15.74-11.197-25.693
		c10.666,2.135,19.686,3.199,27.078,3.199C1167.102,279.613,1178.01,276.947,1186.896,271.617z M1127.305,262.77
		c1.844-9.383,5.969-17.592,12.365-24.627c6.395-7.035,14.285-10.555,23.666-10.555c6.965,0,12.332,2.027,16.098,6.078
		c3.764,4.049,5.652,8.848,5.652,14.391s-2.879,9.951-8.639,13.221c-5.752,3.27-13.434,4.902-23.023,4.902
		C1143.828,266.18,1135.117,265.045,1127.305,262.77z"/>
	<path fill="#FFFFFF" d="M1276.447,165.434c-4.48-2.627-10.129-3.941-16.949-3.941c-6.828,0-12.83,2.914-18.02,8.74
		c-5.193,5.83-7.785,15.352-7.785,28.572v18.121l-10.66-0.426c-2.275,0-4.191,0.57-5.752,1.705c-1.568,1.141-2.35,2.846-2.35,5.119
		c0,4.264,2.697,6.396,8.102,6.396l10.875-0.428v14.287c0,19.615-0.359,39.445-1.068,59.486c-0.143,6.684-0.209,11.123-0.209,13.326
		s0.746,4.301,2.236,6.287c1.494,1.992,3.521,2.988,6.08,2.988s4.58-0.996,6.074-2.988c1.49-1.986,2.236-4.084,2.236-6.287
		s-0.209-9.986-0.637-23.348c-0.426-13.359-0.643-29.85-0.643-49.465v-14.287l20.684,0.428c5.398,0,8.1-2.133,8.1-6.396
		c0-2.273-0.779-3.979-2.342-5.119c-1.566-1.135-3.482-1.705-5.758-1.705l-20.684,0.426v-16.202
		c0-16.632,4.408-24.948,13.225-24.948c2.84,0,5.752,0.855,8.738,2.561c2.984,1.705,5.404,2.559,7.248,2.559
		c3.98,0,5.975-2.346,5.975-7.038C1283.164,170.871,1280.922,168.066,1276.447,165.434z"/>
	<path fill="#FFFFFF" d="M1362.9,276.734c-4.119-4.617-9.164-8.242-15.139-10.875c-5.969-2.627-11.904-5.008-17.803-7.141
		c-5.896-2.135-10.908-4.48-15.027-7.037c-4.125-2.559-6.186-5.652-6.186-9.275c0-3.625,1.922-6.822,5.758-9.594
		c3.838-2.771,8.811-4.158,14.924-4.158c6.107,0,12.51,2.344,19.188,7.035c2.137,1.566,4.27,2.344,6.4,2.344
		c4.973,0,7.459-2.344,7.459-7.035c0-3.836-2.951-7.494-8.848-10.98c-5.898-3.479-13.895-5.224-23.982-5.224
		c-10.102,0-18.629,2.88-25.588,8.636c-6.967,5.758-10.449,12.473-10.449,20.15c0,5.686,2.059,10.59,6.186,14.709
		c4.119,4.125,9.131,7.357,15.033,9.701c5.891,2.348,11.756,4.516,17.586,6.504c14.215,4.979,21.324,11.16,21.324,18.551
		c0,6.113-2.525,10.768-7.568,13.965c-5.051,3.201-11.484,4.799-19.299,4.799c-3.555,0-7.43-0.779-11.623-2.346
		c-4.191-1.562-6.965-2.984-8.311-4.264c-1.357-1.279-2.879-2.844-4.586-4.693c-1.705-1.844-3.061-3.09-4.053-3.729
		c-0.996-0.641-2.309-0.961-3.941-0.961c-1.641,0-3.09,0.678-4.369,2.025c-1.279,1.352-1.922,3.094-1.922,5.225
		c0,4.977,4.053,9.988,12.154,15.031c8.102,5.047,17.658,7.57,28.678,7.57c11.014,0,20.465-3.057,28.357-9.17
		c7.891-6.111,11.832-13.998,11.832-23.666C1369.086,286.721,1367.025,281.355,1362.9,276.734z"/>
	<path fill="#FFFFFF" d="M222.263,25.598c-58.037,0-112.596,22.601-153.628,63.635C27.598,130.27,5,184.828,5,242.863
		c0,21.234,3.057,42.219,9.087,62.369c0.78,2.605,3.223,4.424,5.936,4.424c0.604,0,1.202-0.088,1.783-0.26
		c3.272-0.98,5.139-4.443,4.159-7.719c-5.682-18.998-8.566-38.787-8.566-58.814c0-112.965,91.902-204.864,204.864-204.864
		c112.961,0,204.864,91.899,204.864,204.864c0,19.236-2.664,38.275-7.913,56.59c-0.46,1.594-0.266,3.266,0.531,4.717
		c0.803,1.447,2.127,2.496,3.716,2.953c0.56,0.16,1.135,0.24,1.711,0.24l0,0c2.752,0,5.199-1.846,5.958-4.492
		c5.57-19.422,8.395-39.615,8.395-60.008c0-58.035-22.598-112.594-63.635-153.631C334.853,48.198,280.293,25.598,222.263,25.598z"/>
	<path fill="#FFFFFF" d="M354.826,257.014c-0.311-0.047-0.626-0.072-0.937-0.072c-3.04,0-5.67,2.266-6.13,5.266
		c-2.84,18.617-9.646,35.99-20.217,51.637c-0.924,1.373-1.262,3.025-0.946,4.65s1.246,3.031,2.613,3.959
		c1.03,0.695,2.231,1.062,3.467,1.062c2.065,0,3.992-1.021,5.144-2.729c11.606-17.184,19.076-36.262,22.194-56.709
		c0.254-1.635-0.15-3.275-1.13-4.609C357.904,258.135,356.459,257.262,354.826,257.014z"/>
	<path fill="#FFFFFF" d="M147.813,138.643c1.24,0,2.437-0.366,3.466-1.063c20.992-14.182,45.539-21.679,70.983-21.679
		c25.443,0,49.985,7.497,70.977,21.679c1.03,0.695,2.232,1.063,3.467,1.063c2.065,0,3.992-1.022,5.145-2.73
		c0.93-1.373,1.262-3.023,0.952-4.648c-0.315-1.628-1.246-3.031-2.619-3.959c-23.052-15.574-49.996-23.805-77.921-23.805
		c-27.931,0-54.875,8.23-77.927,23.805c-2.83,1.913-3.577,5.775-1.667,8.607C143.826,137.623,145.748,138.643,147.813,138.643z"/>
	<path fill="#FFFFFF" d="M113.388,325.746c1.284,0,2.52-0.395,3.571-1.137c2.791-1.971,3.461-5.846,1.489-8.637
		c-13.472-19.096-21.385-41.518-22.886-64.834c-0.216-3.389-3.161-6.012-6.583-5.789c-1.65,0.105-3.168,0.85-4.259,2.092
		c-1.097,1.244-1.639,2.838-1.528,4.492c1.645,25.604,10.333,50.221,25.123,71.184C109.479,324.762,111.372,325.746,113.388,325.746
		z"/>
	<path fill="#FFFFFF" d="M163.085,229.516c1.655,0,3.212-0.646,4.386-1.816c2.414-2.418,2.414-6.352,0-8.77l-79.007-79
		c-1.168-1.171-2.724-1.816-4.38-1.816c-1.661,0-3.217,0.646-4.386,1.813c-1.174,1.171-1.816,2.729-1.816,4.386
		c0,1.658,0.643,3.214,1.816,4.386l79.001,79.001C159.868,228.869,161.43,229.516,163.085,229.516z"/>
	<path fill="#FFFFFF" d="M66.005,156.189c-1.661,0-3.218,0.645-4.386,1.816c-1.174,1.172-1.816,2.727-1.816,4.383
		s0.643,3.215,1.816,4.385l79.001,79.002c1.174,1.172,2.729,1.816,4.386,1.816c1.655,0,3.212-0.645,4.38-1.814
		c1.174-1.17,1.821-2.729,1.821-4.385s-0.647-3.215-1.821-4.385l-79.001-79.002C69.217,156.834,67.66,156.189,66.005,156.189z"/>
	<path fill="#FFFFFF" d="M340.058,135.843c-3.312,0-6.739,0.277-10.188,0.825c-16.911,2.691-33.783,11.729-47.505,25.452
		c-21.822,21.823-31.225,51.542-23.639,74.353l-36.463,36.463l-33.18-33.182l6.439-6.443c6.196-6.195,6.196-16.279,0-22.477
		l-88.979-88.983c-1.175-1.172-2.73-1.813-4.386-1.813c-1.656,0-3.212,0.645-4.38,1.813c-1.175,1.171-1.816,2.729-1.816,4.385
		c0,1.656,0.642,3.215,1.816,4.383l88.979,88.985c1.302,1.303,1.356,3.389,0.166,4.762l-0.675,0.35v0.34l-10.316,10.312
		c-1.174,1.174-1.816,2.73-1.816,4.387c0,1.639,0.632,3.182,1.777,4.346l0.022,0.023c0.006,0.006,0.011,0.01,0.017,0.016
		l59.809,59.812c0.271,0.441,0.56,0.816,0.881,1.141c0.32,0.318,0.691,0.605,1.135,0.875l97.246,97.242
		c1.352,1.352,2.094,3.146,2.094,5.051c0,1.91-0.742,3.705-2.094,5.053c-1.346,1.346-3.14,2.088-5.05,2.088
		s-3.704-0.742-5.056-2.088l-158.96-158.965l-0.105-0.109c-1.174-1.168-2.729-1.812-4.385-1.812c-1.661,0-3.218,0.645-4.386,1.812
		l-10.825,10.826l-0.039,0.041c-1.323,1.283-3.594,1.271-4.906-0.041l-88.979-88.979c-1.174-1.172-2.729-1.816-4.385-1.816
		c-1.656,0-3.212,0.645-4.386,1.816c-1.169,1.17-1.816,2.727-1.816,4.383c0,1.654,0.647,3.213,1.816,4.385l88.984,88.982
		c0.039,0.041,0.083,0.082,0.122,0.125l0.077,0.074c2.979,2.877,6.889,4.457,11.036,4.457c4.247,0,8.239-1.656,11.246-4.66
		l6.44-6.439l33.18,33.18l-93.869,93.869c-3.693,3.691-5.726,8.596-5.726,13.818c0,5.221,2.032,10.131,5.726,13.82
		c3.683,3.686,8.594,5.715,13.815,5.715c5.228,0,10.134-2.029,13.821-5.715l93.869-93.867l93.868,93.867
		c3.693,3.691,8.6,5.723,13.821,5.723c5.216,0,10.128-2.031,13.815-5.723c3.693-3.693,5.726-8.6,5.726-13.82
		c0-5.219-2.032-10.125-5.726-13.818l-93.868-93.869l36.463-36.461c5.155,1.715,10.731,2.584,16.59,2.584
		c19.752,0,41.342-9.805,57.76-26.225c13.728-13.721,22.764-30.594,25.455-47.502c2.802-17.643-1.567-33.269-12.299-44.002
		C365.28,140.381,353.591,135.843,340.058,135.843z M286.047,250.82c-0.149-0.031-0.299-0.047-0.448-0.061l-0.178-0.02
		c-0.315-0.043-0.576-0.064-1.03-0.014l-0.116,0.004c-0.199,0.014-0.404,0.031-0.604,0.07c-0.154,0.027-0.305,0.072-0.454,0.119
		l-0.171,0.047c-0.172,0.047-0.344,0.096-0.516,0.164c-0.138,0.055-0.282,0.123-0.415,0.199l-0.155,0.076
		c-0.172,0.084-0.338,0.172-0.492,0.271c-0.116,0.072-0.228,0.158-0.371,0.275c-0.166,0.127-0.333,0.252-0.51,0.414l-39.453,39.438
		l-10.105-10.104l39.32-39.314l0.127-0.145c0.105-0.119,0.199-0.24,0.299-0.365l-1.317-1.135l1.417,1.004
		c0.101-0.121,0.2-0.246,0.288-0.385c0.083-0.129,0.149-0.266,0.222-0.404l0.078-0.146c0.088-0.172,0.177-0.342,0.243-0.512
		c0.056-0.133,0.094-0.271,0.144-0.465l0.033-0.104c0.062-0.189,0.117-0.385,0.155-0.574c0.028-0.158,0.045-0.322,0.056-0.484
		l0.017-0.178c0.017-0.172,0.033-0.344,0.033-0.518c-0.006-0.162-0.017-0.322-0.05-0.57l-0.011-0.105
		c-0.012-0.178-0.033-0.355-0.066-0.529c-0.033-0.141-0.078-0.283-0.122-0.424l-0.033-0.105c-0.045-0.172-0.1-0.34-0.166-0.525
		l-0.078-0.201c-8.134-18.424-0.11-45,19.52-64.627c11.889-11.889,26.335-19.69,40.683-21.972c2.791-0.446,5.548-0.67,8.195-0.67
		c10.205,0,18.877,3.28,25.084,9.487c7.852,7.852,10.986,19.674,8.821,33.285c-2.282,14.348-10.084,28.795-21.973,40.684
		c-14.187,14.184-32.432,22.652-48.817,22.652c-5.78,0-11.097-1.055-15.825-3.145l-0.183-0.066
		c-0.149-0.059-0.311-0.109-0.465-0.152l-0.57,1.641l0.409-1.691C286.346,250.895,286.202,250.85,286.047,250.82z M213.497,319.443
		l-93.869,93.869c-1.346,1.346-3.145,2.088-5.056,2.088c-1.91,0-3.704-0.742-5.05-2.088c-1.351-1.352-2.093-3.145-2.093-5.053
		c0-1.904,0.742-3.699,2.093-5.051l93.869-93.867L213.497,319.443z"/>
	<path fill="#FFFFFF" d="M298.777,187.963c1.146,0,2.286-0.436,3.156-1.307c7.719-7.717,17.088-12.783,26.391-14.262
		c8.771-1.393,16.385,0.611,21.424,5.654c1.744,1.744,4.568,1.744,6.312,0.002c1.744-1.744,1.744-4.57,0-6.314
		c-7.115-7.116-17.459-10.018-29.138-8.16c-11.146,1.771-22.26,7.728-31.302,16.768c-1.744,1.741-1.744,4.568,0,6.312
		C296.496,187.527,297.637,187.963,298.777,187.963z"/>
	<path fill="#FFFFFF" d="M309.447,239.482c12.604,0,26.724-5.953,38.009-17.234c1.744-1.742,1.744-4.569,0-6.313
		c-1.745-1.741-4.574-1.741-6.313,0c-7.719,7.716-17.088,12.782-26.391,14.261c-8.771,1.393-16.379-0.613-21.418-5.656
		c-1.744-1.74-4.574-1.74-6.312,0c-1.744,1.744-1.744,4.572,0,6.316C292.836,236.674,300.781,239.482,309.447,239.482z"/>
</g>
<g>
	<path fill="#FFFFFF" d="M1484.1,207.818c18.248,0,29.871,7.903,29.871,20.34c0,8.601-5.348,15.458-13.947,17.897
		c10.229,1.977,16.736,9.994,16.736,20.57c0,13.831-12.088,22.548-31.266,22.548h-39.865v-81.358L1484.1,207.818L1484.1,207.818z
		 M1466.202,240.36h16.735c6.043,0,9.88-3.254,9.88-8.483c0-5.229-3.837-8.252-9.88-8.252h-16.735V240.36z M1466.202,273.254h16.735
		c7.671,0,12.438-3.371,12.438-9.183c0-5.463-4.768-8.834-12.438-8.834h-16.735V273.254z"/>
	<path fill="#FFFFFF" d="M1549.422,224.09v16.155h38.82v16.271h-38.82v16.389h44.283v16.271h-64.973v-81.358h63.691v16.271
		L1549.422,224.09L1549.422,224.09z"/>
	<path fill="#FFFFFF" d="M1644.73,224.438v64.738h-20.688v-64.738h-24.291v-16.736h69.502v16.736H1644.73z"/>
	<path fill="#FFFFFF" d="M1687.852,274.185l-5.928,14.992h-21.27l35.102-81.358h21.27l34.286,81.358h-22.082l-5.812-14.992H1687.852
		z M1705.752,228.392l-11.855,30.104h23.479L1705.752,228.392z"/>
</g>
</svg>
