<?xml version="1.0" encoding="utf-8"?>
<!-- Generator: Adobe Illustrator 16.0.4, SVG Export Plug-In . SVG Version: 6.00 Build 0)  -->
<!DOCTYPE svg PUBLIC "-//W3C//DTD SVG 1.1//EN" "http://www.w3.org/Graphics/SVG/1.1/DTD/svg11.dtd">
<svg version="1.1"
	 id="svg153" xmlns:dc="http://purl.org/dc/elements/1.1/" xmlns:cc="http://creativecommons.org/ns#" xmlns:rdf="http://www.w3.org/1999/02/22-rdf-syntax-ns#"
	 xmlns="http://www.w3.org/2000/svg" xmlns:xlink="http://www.w3.org/1999/xlink" x="0px" y="0px" width="1379.613px"
	 height="453.4px" viewBox="0 0 1379.613 453.4" enable-background="new 0 0 1379.613 453.4" xml:space="preserve">
<desc  id="desc3066">The United States of America flag, produced by Daniel McRae</desc>
<g>
	<g>
		<g>
			<path fill="#FFFFFF" d="M608.234,280.267c0.125,9.236,0.292,16.653,0.484,22.252c0.2,5.599,0.294,9.369,0.294,11.32
				s-0.72,3.84-2.147,5.66c-1.434,1.822-3.252,2.732-5.467,2.732c-2.217,0-4.034-0.91-5.464-2.732
				c-1.432-1.82-2.147-3.709-2.147-5.66s0.066-5.723,0.194-11.32c0.521-13.016,0.786-29.935,0.786-50.754v-49l-9.375,11.715
				c-1.562,1.953-3.354,4.264-5.366,6.93c-2.022,2.671-3.548,4.657-4.589,5.956c-1.04,1.301-2.242,2.796-3.608,4.49
				c-1.367,1.688-2.408,2.928-3.125,3.709c-0.716,0.774-1.535,1.558-2.443,2.343c-1.688,1.297-3.384,1.948-5.069,1.948
				c-1.694,0-3.128-0.651-4.299-1.948c-1.17-1.306-1.757-2.636-1.757-4.007c0-1.362,0.165-2.471,0.488-3.313
				c0.323-0.853,1.072-2.021,2.245-3.516s2.34-2.894,3.514-4.198c1.171-1.301,3.094-3.415,5.762-6.34
				c2.664-2.933,5.331-5.954,8.002-9.081c2.664-3.124,5.591-6.736,8.784-10.833c3.187-4.104,5.496-6.996,6.931-8.688
				c3.247-4.162,6.339-6.249,9.271-6.249c2.928,0,5.137,0.914,6.637,2.733c1.496,1.824,2.245,3.709,2.245,5.664
				c0,1.947-0.069,5.793-0.192,11.514c-0.527,13.407-0.784,27.56-0.784,42.457C608.037,258.957,608.1,271.021,608.234,280.267z"/>
		</g>
		<g>
			<path fill="#FFFFFF" d="M730.033,201.789c9.633,14.058,14.449,30.78,14.449,50.168c0,19.396-4.816,36.112-14.449,50.166
				c-9.631,14.054-22.191,21.084-37.668,21.084c-15.489,0-28.047-7.03-37.675-21.084c-9.635-14.054-14.447-30.771-14.447-50.166
				c0-19.39,4.812-36.111,14.447-50.168c9.628-14.049,22.187-21.08,37.675-21.08C707.842,180.708,720.403,187.739,730.033,201.789z
				 M719.596,292.854c7.219-11.646,10.832-25.276,10.832-40.897c0-15.617-3.613-29.245-10.832-40.892
				c-7.223-11.644-16.299-17.476-27.23-17.476c-10.929,0-20.009,5.833-27.234,17.476c-7.222,11.647-10.834,25.275-10.834,40.892
				c0,15.621,3.612,29.253,10.834,40.897c7.226,11.646,16.306,17.469,27.234,17.469
				C703.297,310.323,712.373,304.501,719.596,292.854z"/>
		</g>
		<g>
			<path fill="#FFFFFF" d="M814.168,280.267c0.133,9.236,0.295,16.653,0.488,22.252s0.295,9.369,0.295,11.32s-0.721,3.84-2.152,5.66
				c-1.434,1.822-3.252,2.732-5.467,2.732c-2.211,0-4.027-0.91-5.467-2.732c-1.434-1.82-2.146-3.709-2.146-5.66
				s0.062-5.723,0.201-11.32c0.512-13.016,0.779-29.935,0.779-50.754v-49l-9.373,11.715c-1.562,1.953-3.354,4.264-5.365,6.93
				c-2.021,2.671-3.547,4.657-4.584,5.956c-1.055,1.301-2.246,2.796-3.617,4.49c-1.361,1.688-2.406,2.928-3.119,3.709
				c-0.721,0.774-1.533,1.558-2.439,2.343c-1.695,1.297-3.391,1.948-5.082,1.948c-1.686,0-3.121-0.651-4.295-1.948
				c-1.168-1.306-1.756-2.636-1.756-4.007c0-1.362,0.162-2.471,0.486-3.313c0.324-0.853,1.076-2.021,2.246-3.516
				c1.178-1.496,2.346-2.894,3.516-4.198c1.176-1.301,3.09-3.415,5.76-6.34c2.664-2.933,5.336-5.954,7.998-9.081
				c2.672-3.124,5.6-6.736,8.789-10.833c3.186-4.104,5.498-6.996,6.93-8.688c3.252-4.162,6.35-6.249,9.275-6.249
				c2.924,0,5.135,0.914,6.637,2.733c1.494,1.824,2.246,3.709,2.246,5.664c0,1.947-0.07,5.793-0.193,11.514
				c-0.527,13.407-0.783,27.56-0.783,42.457C813.975,258.957,814.037,271.021,814.168,280.267z"/>
		</g>
		<g>
			<path fill="#FFFFFF" d="M1001.555,301.735c0,4.166-4.652,8.789-13.953,13.861c-9.307,5.07-20.209,7.609-32.697,7.609
				c-18.223,0-33.312-7.387-45.287-22.16c-11.973-14.758-17.957-32.791-17.957-54.061c0-21.283,6.047-39.271,18.148-53.982
				c12.111-14.704,27.264-22.052,45.482-22.052c10.805,0,20.504,2.017,29.09,6.047c8.592,4.034,12.885,8.591,12.885,13.668
				c0,2.081-0.619,3.707-1.857,4.878s-2.924,1.756-5.072,1.756c-2.145,0-4.686-1.038-7.611-3.124
				c-2.934-2.079-6.643-4.197-11.125-6.342c-4.492-2.148-9.928-3.221-16.307-3.221c-13.922,0-25.375,6.149-34.348,18.447
				c-8.982,12.296-13.475,26.812-13.475,43.529c0,16.725,4.49,31.396,13.475,44.018c8.973,12.621,20.361,18.933,34.152,18.933
				c6.381,0,12.133-0.679,17.277-2.052c5.143-1.358,9.01-2.826,11.619-4.391c2.594-1.557,5.002-3.027,7.217-4.391
				c2.215-1.37,3.902-2.053,5.078-2.053C999.805,296.657,1001.555,298.353,1001.555,301.735z"/>
		</g>
		<g>
			<path fill="#FFFFFF" d="M1105.403,258.786l-0.975,30.654c0,3.64,0.029,6.41,0.1,8.293c0.062,1.89,0.457,3.841,1.17,5.86
				c0.713,2.013,1.592,3.253,2.633,3.71c1.037,0.448,2.113,0.742,3.221,0.875c1.105,0.131,1.889,0.324,2.346,0.584
				s0.684,0.777,0.684,1.561c0,3.384-1.068,6.218-3.223,8.494c-2.145,2.275-4.652,3.414-7.51,3.414
				c-4.957,0-8.367-1.95-10.252-5.854c-1.891-3.91-2.83-9.632-2.83-17.181l0.777-35.912c0-8.851-1.889-16.013-5.66-21.476
				c-3.777-5.471-9.012-8.199-15.713-8.199c-6.703,0-13.176,3.705-19.424,11.123c-6.248,7.416-10.607,15.817-13.078,25.188
				l0.588,42.354c0,6.637-2.477,9.959-7.418,9.959c-5.984,0-8.98-4.584-8.98-13.76c0-9.177,1.301-22.029,3.902-38.553
				c0-8.852-0.58-25.544-1.75-50.072c-1.178-24.53-1.762-37.772-1.762-39.725c0-1.951,0.682-3.806,2.049-5.563
				c1.361-1.757,3.221-2.634,5.562-2.634s4.199,0.877,5.562,2.634c1.367,1.758,2.057,4.131,2.057,7.124v63.832
				c9.488-16.523,21.203-24.79,35.129-24.79c10.41,0,18.479,3.707,24.205,11.129
				C1102.539,239.267,1105.403,248.248,1105.403,258.786z"/>
		</g>
		<g>
			<path fill="#FFFFFF" d="M1181.823,219.749c10.479,0,18.996,2.931,25.574,8.787c6.57,5.854,9.855,13.465,9.855,22.842
				c0,9.368-4.068,16.492-12.197,21.37c-8.135,4.878-18.127,7.324-29.967,7.324c-6.766,0-15.027-0.977-24.791-2.936
				c0.789,9.114,4.195,16.957,10.25,23.523c6.049,6.573,12.785,9.864,20.201,9.864c4.426,0,8.525-0.619,12.301-1.858
				c3.773-1.237,6.631-2.569,8.59-4.003c5.203-4.034,8.615-6.047,10.244-6.047c1.627,0,2.936,0.486,3.91,1.455
				c0.977,0.976,1.459,2.188,1.459,3.615c0,3.647-3.742,7.806-11.223,12.489c-7.479,4.692-15.588,7.03-24.307,7.03
				c-13.533,0-24.27-4.746-32.203-14.246c-7.941-9.501-12.24-20.953-12.887-34.355c-6.896-2.082-10.342-5.467-10.342-10.15
				c0-1.959,0.551-3.484,1.656-4.592c1.105-1.1,2.439-1.656,4-1.656s3.516,0.58,5.857,1.757
				c2.857-11.715,8.293-21.339,16.299-28.894C1162.114,223.529,1171.346,219.749,1181.823,219.749z M1174.408,267.769
				c8.789,0,15.811-1.494,21.084-4.482c5.266-2.996,7.896-7.03,7.896-12.11c0-5.071-1.727-9.462-5.168-13.171
				c-3.449-3.708-8.357-5.566-14.738-5.566c-8.588,0-15.814,3.222-21.666,9.664c-5.854,6.441-9.631,13.951-11.318,22.547
				C1157.653,266.729,1165.627,267.769,1174.408,267.769z"/>
		</g>
		<g>
			<path fill="#FFFFFF" d="M1260.975,222.679l18.932-0.391c2.084,0,3.85,0.521,5.279,1.561c1.426,1.045,2.146,2.604,2.146,4.687
				c0,3.902-2.479,5.854-7.426,5.854l-18.932-0.388v13.082c0,17.952,0.201,33.051,0.588,45.284
				c0.396,12.234,0.584,19.357,0.584,21.371c0,2.021-0.684,3.939-2.047,5.761c-1.371,1.823-3.221,2.733-5.566,2.733
				c-2.34,0-4.193-0.91-5.562-2.733c-1.359-1.819-2.049-3.74-2.049-5.761c0-2.014,0.061-6.078,0.201-12.195
				c0.643-18.352,0.977-36.508,0.977-54.46v-13.082l-9.959,0.388c-4.947,0-7.416-1.951-7.416-5.854c0-2.083,0.711-3.642,2.145-4.687
				c1.432-1.04,3.189-1.561,5.271-1.561l9.758,0.391v-16.593c0-12.102,2.373-20.817,7.123-26.157
				c4.754-5.333,10.252-8.002,16.5-8.002c6.24,0,11.42,1.202,15.514,3.61c4.1,2.41,6.15,4.981,6.15,7.708
				c0,4.298-1.818,6.446-5.467,6.446c-1.688,0-3.902-0.782-6.635-2.342c-2.734-1.564-5.404-2.342-7.998-2.342
				c-8.076,0-12.111,7.611-12.111,22.84V222.679L1260.975,222.679z"/>
		</g>
		<g>
			<path fill="#FFFFFF" d="M1371.85,292.174c0,8.851-3.607,16.074-10.828,21.665c-7.225,5.598-15.881,8.395-25.963,8.395
				c-10.09,0-18.838-2.309-26.256-6.932c-7.418-4.613-11.127-9.205-11.127-13.759c0-1.951,0.58-3.547,1.758-4.785
				c1.166-1.239,2.5-1.858,4.002-1.858c1.492,0,2.695,0.295,3.609,0.884c0.906,0.589,2.145,1.727,3.705,3.415
				c1.562,1.695,2.961,3.128,4.199,4.297c1.23,1.169,3.771,2.47,7.611,3.902c3.842,1.433,7.387,2.145,10.641,2.145
				c7.152,0,13.047-1.463,17.664-4.391c4.619-2.926,6.93-7.186,6.93-12.783c0-6.768-6.508-12.428-19.52-16.987
				c-5.34-1.819-10.705-3.802-16.102-5.946c-5.404-2.152-9.988-5.11-13.76-8.882c-3.781-3.778-5.668-8.27-5.668-13.469
				c0-7.03,3.189-13.183,9.566-18.446c6.375-5.273,14.182-7.911,23.426-7.911c9.24,0,16.562,1.597,21.959,4.785
				c5.396,3.187,8.1,6.539,8.1,10.055c0,4.289-2.275,6.435-6.828,6.435c-1.951,0-3.904-0.713-5.857-2.146
				c-6.121-4.289-11.975-6.441-17.564-6.441c-5.6,0-10.152,1.27-13.666,3.811c-3.516,2.53-5.273,5.465-5.273,8.783
				c0,3.317,1.891,6.145,5.66,8.49c3.777,2.346,8.357,4.49,13.764,6.441c5.4,1.951,10.836,4.135,16.303,6.539
				c5.463,2.412,10.082,5.727,13.859,9.953C1369.963,281.667,1371.85,286.576,1371.85,292.174z"/>
		</g>
	</g>
	<path fill="#FFFFFF" d="M482.789,241.466c0,22.301-3.089,44.366-9.179,65.605c-0.831,2.888-3.508,4.908-6.508,4.908
		c-0.636,0-1.263-0.092-1.874-0.264c-1.738-0.503-3.181-1.648-4.058-3.229c-0.881-1.588-1.088-3.416-0.583-5.157
		c5.734-20.022,8.641-40.836,8.641-61.865c0-123.49-100.461-223.955-223.953-223.955c-123.488,0-223.952,100.465-223.952,223.955
		c0,21.896,3.15,43.53,9.365,64.297c1.071,3.585-0.973,7.363-4.55,8.439c-0.633,0.19-1.289,0.286-1.946,0.286
		c-2.973,0-5.642-1.989-6.497-4.84c-6.587-22.027-9.931-44.971-9.931-68.184c0-63.444,24.708-123.084,69.566-167.946
		c44.858-44.859,104.5-69.566,167.944-69.566c63.445,0,123.09,24.708,167.95,69.566
		C458.083,118.382,482.789,178.022,482.789,241.466z M390.193,256.937c-0.337-0.055-0.681-0.078-1.024-0.078
		c-3.317,0-6.193,2.479-6.702,5.758c-3.104,20.353-10.542,39.346-22.097,56.449c-1.012,1.502-1.38,3.307-1.033,5.08
		c0.342,1.78,1.357,3.313,2.852,4.328c1.128,0.758,2.438,1.16,3.796,1.16c2.261,0,4.356-1.109,5.62-2.98
		c12.687-18.779,20.852-39.635,24.266-61.989C396.434,260.966,393.888,257.501,390.193,256.937z M163.885,127.534
		c1.365,0,2.673-0.399,3.792-1.162c22.95-15.505,49.789-23.701,77.599-23.701c27.812,0,54.646,8.196,77.6,23.701
		c1.123,0.759,2.438,1.162,3.791,1.162c2.249,0,4.355-1.115,5.617-2.985c1.015-1.502,1.386-3.306,1.042-5.082
		c-0.344-1.779-1.363-3.316-2.863-4.33c-25.197-17.022-54.655-26.024-85.186-26.024c-30.528,0-59.988,9.001-85.185,26.028
		c-1.504,1.01-2.521,2.547-2.86,4.326c-0.346,1.775,0.024,3.583,1.041,5.082C159.533,126.419,161.632,127.534,163.885,127.534z
		 M126.256,332.073c1.404,0,2.751-0.426,3.897-1.239c3.06-2.151,3.79-6.396,1.638-9.446c-14.733-20.871-23.38-45.381-25.016-70.879
		c-0.242-3.699-3.444-6.572-7.203-6.32c-3.73,0.234-6.572,3.465-6.33,7.195c1.804,27.991,11.301,54.896,27.472,77.816
		C121.978,331.001,124.054,332.073,126.256,332.073z M180.584,226.878c1.814,0,3.511-0.711,4.789-1.988
		c1.281-1.277,1.988-2.981,1.988-4.793c0-1.808-0.707-3.511-1.988-4.792L99.013,128.94c-1.281-1.276-2.982-1.986-4.795-1.986
		c-1.81,0-3.517,0.71-4.789,1.982c-1.282,1.281-1.985,2.985-1.985,4.797c0,1.808,0.703,3.513,1.985,4.793l86.363,86.364
		C177.071,226.167,178.768,226.878,180.584,226.878z M74.454,146.713c-1.808,0-3.514,0.708-4.789,1.986
		c-1.281,1.282-1.986,2.987-1.986,4.797c0,1.808,0.705,3.512,1.986,4.791l86.361,86.368c1.28,1.277,2.982,1.981,4.796,1.981
		c1.812,0,3.512-0.704,4.789-1.981c1.282-1.285,1.983-2.988,1.983-4.801c0-1.805-0.703-3.508-1.983-4.785l-86.364-86.37
		C77.967,147.422,76.265,146.713,74.454,146.713z M411.01,138.819c11.734,11.734,16.509,28.817,13.447,48.103
		c-2.938,18.486-12.822,36.926-27.83,51.927c-17.946,17.955-41.548,28.672-63.138,28.672c-6.409,0-12.505-0.953-18.138-2.826
		l-39.857,39.859l102.611,102.617c4.033,4.034,6.26,9.4,6.26,15.106s-2.227,11.071-6.26,15.105
		c-4.038,4.042-9.398,6.256-15.106,6.256c-5.703,0-11.068-2.214-15.103-6.256L245.277,334.767L142.658,437.383
		c-4.028,4.03-9.395,6.248-15.104,6.248c-5.716,0-11.084-2.218-15.109-6.248c-4.034-4.034-6.256-9.399-6.256-15.105
		s2.222-11.072,6.256-15.106l102.617-102.617l-36.267-36.268l-7.044,7.038c-3.283,3.282-7.647,5.087-12.288,5.087
		c-4.642,0-9.005-1.805-12.288-5.087L49.901,178.05c-1.282-1.279-1.986-2.983-1.986-4.791c0-1.812,0.705-3.515,1.986-4.795
		c1.28-1.279,2.98-1.986,4.791-1.986c1.812,0,3.52,0.707,4.795,1.986l97.273,97.274c1.448,1.448,3.96,1.448,5.405,0l11.837-11.831
		c1.279-1.285,2.978-1.99,4.793-1.99c1.812,0,3.507,0.705,4.789,1.99l173.896,173.895c1.475,1.477,3.432,2.28,5.525,2.28
		c2.083,0,4.044-0.805,5.516-2.28c1.475-1.475,2.288-3.44,2.288-5.523s-0.813-4.042-2.288-5.521L262.214,310.446
		c-0.481-0.286-0.895-0.604-1.241-0.961c-0.353-0.348-0.666-0.758-0.964-1.238l-65.383-65.385c-0.002-0.012-0.007-0.012-0.013-0.012
		l-0.029-0.031c-1.254-1.277-1.94-2.965-1.94-4.75c0-1.812,0.704-3.521,1.983-4.793l11.833-11.833
		c1.49-1.491,1.49-3.918,0.004-5.403l-97.273-97.28c-1.282-1.275-1.986-2.981-1.986-4.789c0-1.812,0.705-3.515,1.986-4.796
		c1.28-1.278,2.984-1.986,4.789-1.986c1.815,0,3.516,0.708,4.797,1.986l97.273,97.28c6.771,6.775,6.775,17.791,0,24.571
		l-7.046,7.043l36.275,36.271l39.854-39.86c-8.287-24.938,1.992-57.425,25.853-81.282c15.002-15.002,33.439-24.88,51.926-27.824
		c3.776-0.597,7.524-0.902,11.142-0.902C388.847,124.472,401.625,129.435,411.01,138.819z M315.497,250.3l-0.447,1.852l0.62-1.797
		c0.178,0.047,0.343,0.102,0.513,0.162l0.197,0.078c5.168,2.284,10.985,3.438,17.305,3.438c17.904,0,37.854-9.257,53.359-24.763
		c13-13,21.525-28.797,24.021-44.478c2.371-14.882-1.056-27.805-9.639-36.388c-6.787-6.787-16.27-10.376-27.419-10.376
		c-2.899,0-5.912,0.248-8.968,0.732c-15.682,2.497-31.469,11.028-44.47,24.022c-21.458,21.456-30.23,50.509-21.341,70.651
		l0.083,0.217c0.079,0.211,0.142,0.396,0.196,0.59l0.031,0.107c0.05,0.163,0.095,0.317,0.13,0.474
		c0.035,0.178,0.059,0.37,0.073,0.563l0.012,0.117c0.031,0.271,0.052,0.448,0.052,0.619c0,0.193-0.018,0.379-0.038,0.572
		l-0.015,0.187c-0.016,0.179-0.031,0.36-0.062,0.534c-0.039,0.209-0.104,0.418-0.167,0.627l-0.035,0.116
		c-0.061,0.209-0.102,0.364-0.165,0.503c-0.064,0.179-0.161,0.363-0.263,0.55l-0.09,0.179c-0.07,0.146-0.148,0.295-0.239,0.435
		c-0.096,0.153-0.204,0.286-0.312,0.418l-1.554-1.093l1.454,1.225c-0.108,0.139-0.224,0.286-0.347,0.418l-0.13,0.154l-42.98,42.98
		l11.042,11.041l43.118-43.104c0.172-0.155,0.357-0.303,0.546-0.441c0.184-0.144,0.298-0.24,0.417-0.316
		c0.18-0.116,0.368-0.209,0.557-0.295l0.163-0.086c0.151-0.084,0.306-0.162,0.469-0.224c0.174-0.069,0.362-0.124,0.553-0.179
		l0.188-0.055c0.163-0.043,0.329-0.094,0.496-0.123c0.215-0.047,0.438-0.062,0.662-0.078l0.114-0.004
		c0.513-0.059,0.785-0.034,1.132,0.012l0.109,0.016c0.248,0.023,0.416,0.043,0.575,0.07
		C315.177,250.199,315.336,250.246,315.497,250.3z M133.074,427.803l102.619-102.62l-11.043-11.041L122.031,416.758
		c-1.471,1.479-2.284,3.438-2.284,5.521s0.813,4.042,2.284,5.523c1.471,1.468,3.434,2.28,5.524,2.28
		C129.645,430.083,131.604,429.271,133.074,427.803z M328.925,181.452c1.247,0,2.499-0.477,3.448-1.429
		c8.439-8.44,18.684-13.97,28.856-15.59c9.582-1.523,17.904,0.666,23.415,6.181c1.902,1.903,4.998,1.903,6.904,0
		c1.903-1.907,1.903-4.996,0-6.901c-7.784-7.782-19.094-10.95-31.857-8.92c-12.183,1.938-24.336,8.446-34.219,18.328
		c-1.904,1.905-1.904,4.998,0,6.903C326.426,180.976,327.673,181.452,328.925,181.452z M340.586,237.772
		c13.778,0,29.218-6.506,41.55-18.841c1.911-1.903,1.911-4.994,0-6.903c-1.902-1.905-4.989-1.905-6.896,0
		c-8.44,8.436-18.685,13.972-28.853,15.592c-9.594,1.525-17.909-0.674-23.418-6.185c-1.902-1.905-4.998-1.905-6.896,0
		c-1.909,1.905-1.909,4.992,0,6.904C322.43,234.702,331.115,237.772,340.586,237.772z"/>
</g>
</svg>
